0
SECTION
2
HEADER
9
$INSUNITS
70
4
9
$ACADVER
1
AC1014
9
$HANDSEED
5
FFFF
0
ENDSEC
0
SECTION
2
TABLES
0
TABLE
2
VPORT
5
8
100
AcDbSymbolTable
0
ENDTAB
0
TABLE
2
LTYPE
5
5
100
AcDbSymbolTable
0
LTYPE
5
14
100
AcDbSymbolTableRecord
100
AcDbLinetypeTableRecord
2
BYBLOCK
70
0
0
LTYPE
5
15
100
AcDbSymbolTableRecord
100
AcDbLinetypeTableRecord
2
BYLAYER
70
0
0
LTYPE
5
16
100
AcDbSymbolTableRecord
100
AcDbLinetypeTableRecord
2
DASHED
70
0
3
Dashed __ __ __ __ __ __ __ __ __ __ __ __ __ _
72
65
73
2
40
0.75
49
0.5
74
0
49
-0.25
74
0
0
ENDTAB
0
TABLE
2
LAYER
5
2
100
AcDbSymbolTable
70
3
0
LAYER
5
50
100
AcDbSymbolTableRecord
100
AcDbLayerTableRecord
2
1
70
0
62
7
6
DASHED
0
LAYER
5
51
100
AcDbSymbolTableRecord
100
AcDbLayerTableRecord
2
0
70
0
62
7
6
CONTINUOUS
0
ENDTAB
0
TABLE
2
STYLE
5
3
100
AcDbSymbolTable
70
1
0
STYLE
5
11
100
AcDbSymbolTableRecord
100
AcDbTextStyleTableRecord
2
STANDARD
70
0
0
ENDTAB
0
TABLE
2
VIEW
5
6
100
AcDbSymbolTable
70
0
0
ENDTAB
0
TABLE
2
UCS
5
7
100
AcDbSymbolTable
70
0
0
ENDTAB
0
TABLE
2
APPID
5
9
100
AcDbSymbolTable
70
2
0
APPID
5
12
100
AcDbSymbolTableRecord
100
AcDbRegAppTableRecord
2
ACAD
70
0
0
ENDTAB
0
TABLE
2
DIMSTYLE
5
A
100
AcDbSymbolTable
70
1
0
ENDTAB
0
TABLE
2
BLOCK_RECORD
5
1
100
AcDbSymbolTable
70
1
0
BLOCK_RECORD
5
1F
100
AcDbSymbolTableRecord
100
AcDbBlockTableRecord
2
*MODEL_SPACE
0
BLOCK_RECORD
5
1B
100
AcDbSymbolTableRecord
100
AcDbBlockTableRecord
2
*PAPER_SPACE
0
ENDTAB
0
ENDSEC
0
SECTION
2
BLOCKS
0
BLOCK
5
20
100
AcDbEntity
100
AcDbBlockBegin
2
*MODEL_SPACE
0
ENDBLK
5
21
100
AcDbEntity
100
AcDbBlockEnd
0
BLOCK
5
1C
100
AcDbEntity
100
AcDbBlockBegin
2
*PAPER_SPACE
0
ENDBLK
5
1D
100
AcDbEntity
100
AcDbBlockEnd
0
ENDSEC
0
SECTION
2
ENTITIES
0
LWPOLYLINE
5
100
100
AcDbEntity
8
0
100
AcDbPolyline
90
8
70
1
43
0.0
10
20.84597969588188
20
-21.804353839235162
10
20.34597969588188
20
-21.804353839235162
42
-0.41421356237309503
10
19.595979695881883
20
-21.054353839235162
10
19.595979695881883
20
-12.554353839235162
42
-0.41421356237309503
10
20.34597969588188
20
-11.804353839235162
10
20.845979695881876
20
-11.804353839235162
42
-0.41421356237309503
10
21.595979695881876
20
-12.554353839235164
10
21.59597969588188
20
-21.054353839235162
42
-0.41421356237309503
0
LWPOLYLINE
5
101
100
AcDbEntity
8
0
100
AcDbPolyline
90
8
70
1
43
0.0
10
-1.1040203041181229
20
-8.1543538392351635
10
-1.1040203041181229
20
-7.6543538392351635
42
-0.41421356237309426
10
-0.35402030411812546
20
-6.9043538392351644
10
8.1459796958818806
20
-6.9043538392351618
42
-0.41421356237309503
10
8.8959796958818789
20
-7.6543538392351618
10
8.8959796958818789
20
-8.1543538392351618
42
-0.41421356237309503
10
8.1459796958818806
20
-8.9043538392351618
10
-0.35402030411812324
20
-8.9043538392351635
42
-0.41421356237309498
0
LWPOLYLINE
5
102
100
AcDbEntity
8
0
100
AcDbPolyline
90
8
70
1
43
0.0
10
-17.604020304118119
20
-19.354353839235159
10
-17.604020304118123
20
-11.65435383923516
42
-0.4142135623730942
10
-16.854020304118123
20
-10.904353839235162
10
-16.354020304118123
20
-10.904353839235162
42
-0.41421356237309503
10
-15.604020304118123
20
-11.65435383923516
10
-15.604020304118123
20
-19.354353839235163
42
-0.4142135623730942
10
-16.354020304118119
20
-20.104353839235163
10
-16.854020304118123
20
-20.104353839235163
42
-0.41421356237309592
0
LWPOLYLINE
5
103
100
AcDbEntity
8
0
100
AcDbPolyline
90
36
70
1
43
0.0
10
35.929824389434437
20
-35.625307405408151
10
35.929824389434437
20
-27.625307405408151
10
39.929824389434444
20
-27.625307405408151
10
39.929824389434437
20
-19.625307405408151
10
35.929824389434437
20
-19.625307405408151
10
35.929824389434437
20
-11.625307405408151
10
39.929824389434437
20
-11.625307405408151
10
39.929824389434437
20
-3.6253074054081513
10
35.929824389434437
20
-3.6253074054081513
10
35.929824389434437
20
5.97314729709489
10
-20.57017561056556
20
5.97314729709489
10
-20.57017561056556
20
-3.6253074054081513
10
-24.570175610565567
20
-3.6253074054081513
10
-24.570175610565567
20
-11.625307405408151
10
-20.57017561056556
20
-11.625307405408151
10
-20.57017561056556
20
-19.625307405408151
10
-24.570175610565567
20
-19.625307405408151
10
-24.570175610565563
20
-27.625307405408151
10
-20.57017561056556
20
-27.625307405408151
10
-20.57017561056556
20
-35.625307405408151
10
-24.570175610565563
20
-35.625307405408151
10
-24.570175610565563
20
-47.625307405408144
10
-14.570175610565567
20
-47.625307405408144
10
-14.570175610565567
20
-43.625307405408137
10
-5.5701756105655669
20
-43.625307405408137
10
-5.5701756105655678
20
-47.625307405408144
10
3.4298243894344327
20
-47.625307405408144
10
3.4298243894344331
20
-43.625307405408137
10
12.429824389434433
20
-43.625307405408151
10
12.429824389434433
20
-47.625307405408144
10
21.429824389434433
20
-47.625307405408144
10
21.429824389434433
20
-43.625307405408151
10
30.429824389434433
20
-43.625307405408151
10
30.429824389434433
20
-47.625307405408144
10
39.929824389434444
20
-47.625307405408144
10
39.929824389434444
20
-35.625307405408151
0
LWPOLYLINE
5
104
100
AcDbEntity
8
0
100
AcDbPolyline
90
44
70
1
43
0.0
10
-5.5701756105655686
20
-43.625307405408151
10
-5.5701756105655686
20
-47.625307405408151
10
3.4298243894344327
20
-47.625307405408151
10
3.4298243894344327
20
-43.625307405408151
10
12.429824389434433
20
-43.625307405408151
10
12.429824389434433
20
-47.625307405408151
10
21.429824389434433
20
-47.625307405408151
10
21.429824389434433
20
-43.625307405408151
10
30.429824389434433
20
-43.625307405408151
10
30.429824389434437
20
-47.625307405408151
10
35.92982438943443
20
-47.625307405408151
10
35.92982438943443
20
-55.625307405408151
10
39.92982438943443
20
-55.625307405408151
10
39.92982438943443
20
-63.625307405408151
10
35.92982438943443
20
-63.625307405408151
10
35.92982438943443
20
-71.625307405408151
10
39.92982438943443
20
-71.625307405408151
10
39.92982438943443
20
-79.625307405408151
10
35.92982438943443
20
-79.625307405408151
10
35.92982438943443
20
-86.975307405408159
10
30.429824389434433
20
-86.975307405408159
10
30.429824389434433
20
-90.975307405408159
10
21.429824389434433
20
-90.975307405408159
10
21.429824389434433
20
-86.975307405408159
10
12.429824389434433
20
-86.975307405408159
10
12.429824389434433
20
-90.975307405408159
10
3.4298243894344327
20
-90.975307405408159
10
3.4298243894344327
20
-86.975307405408159
10
-5.5701756105655686
20
-86.975307405408159
10
-5.5701756105655686
20
-90.975307405408159
10
-14.570175610565567
20
-90.975307405408159
10
-14.570175610565567
20
-86.975307405408159
10
-20.57017561056557
20
-86.975307405408159
10
-20.57017561056557
20
-79.625307405408151
10
-24.570175610565567
20
-79.625307405408151
10
-24.570175610565567
20
-71.625307405408151
10
-20.57017561056557
20
-71.625307405408151
10
-20.57017561056557
20
-63.625307405408151
10
-24.570175610565567
20
-63.625307405408151
10
-24.570175610565567
20
-55.625307405408151
10
-20.57017561056557
20
-55.625307405408151
10
-20.57017561056557
20
-47.625307405408151
10
-14.570175610565567
20
-47.625307405408151
10
-14.570175610565567
20
-43.625307405408151
0
LWPOLYLINE
5
105
100
AcDbEntity
8
0
100
AcDbPolyline
90
8
70
1
43
0.0
10
-9.4186097164100584
20
-60.178497268018923
10
11.705664442435124
20
-60.178497268018923
42
-0.41421356237309465
10
13.205664442435124
20
-61.67849726801893
10
13.205664442435125
20
-63.809116557836518
42
-0.41421356237309503
10
11.705664442435122
20
-65.309116557836518
10
-9.4186097164100566
20
-65.309116557836518
42
-0.41421356237309503
10
-10.918609716410057
20
-63.809116557836518
10
-10.918609716410062
20
-61.67849726801893
42
-0.41421356237309503
0
LWPOLYLINE
5
106
100
AcDbEntity
8
0
100
AcDbPolyline
90
36
70
1
43
0.0
10
35.929824389434415
20
-122.97530740540799
10
35.929824389434415
20
-134.10615121673624
10
-20.570175610565578
20
-134.10615121673621
10
-20.570175610565581
20
-122.97530740540796
10
-24.570175610565581
20
-122.97530740540796
10
-24.570175610565578
20
-114.97530740540797
10
-20.570175610565581
20
-114.97530740540797
10
-20.570175610565581
20
-106.97530740540797
10
-24.570175610565581
20
-106.97530740540797
10
-24.570175610565578
20
-98.975307405407989
10
-20.570175610565581
20
-98.975307405407989
10
-20.570175610565581
20
-90.975307405407975
10
-24.570175610565581
20
-90.975307405407975
10
-24.570175610565578
20
-86.975307405407989
10
-14.57017561056559
20
-86.975307405407989
10
-14.57017561056559
20
-90.975307405407989
10
-5.5701756105655882
20
-90.975307405407975
10
-5.57017561056559
20
-86.975307405407989
10
3.4298243894344105
20
-86.975307405407989
10
3.4298243894344105
20
-90.975307405407989
10
12.429824389434412
20
-90.975307405407975
10
12.429824389434412
20
-86.975307405407989
10
21.429824389434412
20
-86.975307405407989
10
21.429824389434412
20
-90.975307405407975
10
30.429824389434408
20
-90.975307405407975
10
30.429824389434408
20
-86.975307405407989
10
39.929824389434415
20
-86.975307405407989
10
39.929824389434415
20
-90.975307405407989
10
35.929824389434415
20
-90.975307405407975
10
35.929824389434415
20
-98.97530740540796
10
39.929824389434415
20
-98.975307405407989
10
39.929824389434415
20
-106.97530740540799
10
35.929824389434415
20
-106.97530740540797
10
35.929824389434408
20
-114.97530740540797
10
39.929824389434415
20
-114.97530740540797
10
39.929824389434415
20
-122.97530740540799
0
LWPOLYLINE
5
107
100
AcDbEntity
8
0
100
AcDbPolyline
90
40
70
1
43
0.0
10
62.092839313663255
20
-194.35752893957161
10
66.092839313663262
20
-194.35752893957161
10
66.092839313663262
20
-186.35752893957161
10
62.092839313663255
20
-186.35752893957161
10
62.092839313663248
20
-178.35752893957164
10
66.092839313663262
20
-178.35752893957164
10
66.092839313663262
20
-170.35752893957164
10
62.092839313663255
20
-170.35752893957164
10
62.092839313663255
20
-162.35752893957164
10
66.092839313663262
20
-162.35752893957164
10
66.092839313663262
20
-148.19134889365404
10
59.375947742751613
20
-147.60369702706646
10
59.724570713742239
20
-143.61891823469949
10
49.762623732824792
20
-142.74736080722289
10
49.414000761834146
20
-146.73213959958989
10
39.452053780916692
20
-145.86058217211328
10
39.800676751907332
20
-141.87580337974629
10
29.838729770989858
20
-141.00424595226971
10
29.490106799999232
20
-144.98902474463671
10
18.742839313662842
20
-144.04876067570154
10
18.742839313662834
20
-154.35752893957161
10
22.742839313662838
20
-154.35752893957161
10
22.742839313662834
20
-162.35752893957164
10
18.742839313662831
20
-162.35752893957164
10
18.742839313662831
20
-170.35752893957164
10
22.742839313662834
20
-170.35752893957164
10
22.742839313662834
20
-178.35752893957164
10
18.742839313662831
20
-178.35752893957164
10
18.742839313662827
20
-186.35752893957161
10
22.742839313662827
20
-186.35752893957161
10
22.742839313662827
20
-198.35752893957161
10
30.742839313662827
20
-198.35752893957161
10
30.742839313662827
20
-194.35752893957158
10
38.742839313662827
20
-194.35752893957161
10
38.742839313662827
20
-198.35752893957164
10
46.742839313662827
20
-198.35752893957161
10
46.742839313662827
20
-194.35752893957158
10
54.742839313662834
20
-194.35752893957161
10
54.742839313662834
20
-198.35752893957164
10
62.09283931366285
20
-198.35752893957164
0
LWPOLYLINE
5
108
100
AcDbEntity
8
0
100
AcDbPolyline
90
8
70
1
43
0.0
10
36.630614114208335
20
-163.81812721228957
10
42.028887569277046
20
-163.8181272122896
42
-0.41421356237308815
10
43.528887569277046
20
-165.31812721228957
10
43.52888756927706
20
-170.99145329143258
42
-0.41421356237309503
10
42.028887569277046
20
-172.49145329143261
10
36.630614114208335
20
-172.49145329143261
42
-0.41421356237309503
10
35.130614114208328
20
-170.99145329143258
10
35.130614114208313
20
-165.3181272122896
42
-0.4142135623730942
0
LWPOLYLINE
5
109
100
AcDbEntity
8
0
100
AcDbPolyline
90
24
70
1
43
0.0
10
11.385942231807899
20
-278.25122792331513
10
11.73778866453894
20
-282.27285105197177
10
1.775841683621473
20
-283.14440847944815
10
1.423995250890437
20
-279.12278535079156
10
-8.5379517300270429
20
-279.99434277826794
10
-8.1861052972960024
20
-284.01596590692458
10
-41.772299481386824
20
-286.95437714901226
42
-0.41421356237309098
10
-43.397325142645897
20
-285.59081871599614
10
-48.757403321625887
20
-224.32484478335368
42
-0.41421356237309503
10
-47.393844888609735
20
-222.6998191220946
10
-13.856424979508738
20
-219.76567507614018
10
-13.511270229011316
20
-223.71081192687308
10
-3.549323248093843
20
-222.83925449939665
10
-3.894477998591257
20
-218.89411764866378
10
6.0674689823262007
20
-218.02256022118738
10
6.4126237328236249
20
-221.96769707192021
10
16.374570713741111
20
-221.09613964444378
10
16.029415963243693
20
-217.15100279371092
10
25.328368072087819
20
-216.33744990151672
42
-0.41421356237309337
10
26.9533937333469
20
-217.70100833453287
10
32.313471912326918
20
-278.96698226717535
42
-0.41421356237309048
10
30.949913479310716
20
-280.59200792843444
10
21.699735645456428
20
-281.40129362449534
10
21.347889212725391
20
-277.3796704958387
0
LWPOLYLINE
5
110
100
AcDbEntity
8
0
100
AcDbPolyline
90
12
70
1
43
0.0
10
-39.088767053839412
20
-277.56476156500207
10
-27.13443067673839
20
-276.51889265203039
42
-0.13689833259334824
10
-26.341885532846682
20
-276.66707716294991
10
-25.013119880714171
20
-277.32036258427269
42
0.13689833259337206
10
-24.22057473682246
20
-277.46854709519215
10
8.6538503002054057
20
-274.59240758452
42
0.13689833259337433
10
9.4086229322424977
20
-274.30885030933456
10
10.603759825489901
20
-273.43475202744696
42
-0.13689833259342324
10
11.35853245752698
20
-273.15119475226152
10
23.312868834628016
20
-272.10532583928983
10
19.89810683377549
20
-233.07441756805537
10
-42.503529054691981
20
-238.53385329376766
0
LWPOLYLINE
5
111
100
AcDbEntity
8
0
100
AcDbPolyline
90
40
70
1
43
0.0
10
18.742839313663424
20
-170.35752893957164
10
22.742839313663424
20
-170.35752893957169
10
22.742839313663264
20
-178.35752893957167
10
18.742839313663264
20
-178.35752893957161
10
18.742839313663112
20
-186.35752893957161
10
22.742839313663104
20
-186.35752893957169
10
22.742839313662945
20
-194.35752893957169
10
18.742839313662945
20
-194.35752893957161
10
18.742839313662795
20
-202.35752893957164
10
22.742839313662792
20
-202.35752893957169
10
22.742839313662515
20
-216.52370898548929
10
16.025947742750894
20
-217.11136085207673
10
16.374570713741445
20
-221.09613964444372
10
6.4126237328239641
20
-221.9676970719201
10
6.0640007618334115
20
-217.98291827955313
10
-3.8979462190840608
20
-218.85447570702951
10
-3.54932324809351
20
-222.83925449939653
10
-13.511270229010988
20
-223.71081192687288
10
-13.859893200001546
20
-219.72603313450588
10
-24.607160686337988
20
-220.66629720344085
10
-24.607160686337792
20
-210.35752893957078
10
-20.607160686337792
20
-210.35752893957084
10
-20.607160686337632
20
-202.35752893957084
10
-24.607160686337632
20
-202.35752893957078
10
-24.60716068633748
20
-194.35752893957076
10
-20.607160686337483
20
-194.35752893957084
10
-20.607160686337323
20
-186.35752893957084
10
-24.607160686337323
20
-186.35752893957076
10
-24.60716068633716
20
-178.35752893957076
10
-20.607160686337163
20
-178.35752893957081
10
-20.607160686336911
20
-166.35752893957087
10
-12.607160686336911
20
-166.35752893957101
10
-12.607160686337004
20
-170.35752893957101
10
-4.6071606863369947
20
-170.35752893957118
10
-4.6071606863369219
20
-166.35752893957115
10
3.3928393136630786
20
-166.35752893957132
10
3.3928393136629986
20
-170.3575289395713
10
11.392839313663002
20
-170.35752893957147
10
11.392839313663078
20
-166.35752893957147
10
18.742839313663506
20
-166.35752893957161
0
LWPOLYLINE
5
112
100
AcDbEntity
8
0
100
AcDbPolyline
90
8
70
1
43
0.0
10
11.630204070608308
20
-206.95703717170457
10
-6.4595536520585917
20
-206.95703717170426
42
-0.41421356237309764
10
-7.9595536520585739
20
-205.4570371717042
10
-7.9595536520582888
20
-191.80552339374597
42
-0.41421356237309243
10
-6.4595536520582808
20
-190.305523393746
10
11.63020407060862
20
-190.30552339374637
42
-0.41421356237309631
10
13.130204070608594
20
-191.8055233937464
10
13.130204070608311
20
-205.4570371717046
42
-0.41421356237309159
0
LWPOLYLINE
5
113
100
AcDbEntity
8
0
100
AcDbPolyline
90
36
70
1
43
0.0
10
-30.570175610566629
20
-166.32530740540761
10
-30.570175610566707
20
-170.32530740540764
10
-39.5701756105667
20
-170.32530740540744
10
-39.570175610566629
20
-166.32530740540744
10
-48.570175610566636
20
-166.32530740540727
10
-48.570175610566707
20
-170.32530740540727
10
-57.570175610566707
20
-170.32530740540707
10
-57.570175610566629
20
-166.3253074054071
10
-66.570175610566622
20
-166.3253074054069
10
-66.570175610566707
20
-170.32530740540693
10
-75.570175610566707
20
-170.32530740540676
10
-75.570175610566622
20
-166.32530740540673
10
-85.070175610566636
20
-166.32530740540656
10
-85.070175610566878
20
-178.32530740540653
10
-81.070175610566864
20
-178.32530740540662
10
-81.07017561056702
20
-186.32530740540662
10
-85.07017561056702
20
-186.32530740540656
10
-85.070175610567162
20
-194.32530740540656
10
-81.07017561056719
20
-194.32530740540665
10
-81.070175610567333
20
-202.32530740540665
10
-85.070175610567347
20
-202.32530740540653
10
-85.070175610567489
20
-210.32530740540659
10
-81.070175610567503
20
-210.32530740540665
10
-81.070175610567674
20
-219.92376210790968
10
-24.570175610567691
20
-219.92376210791079
10
-24.5701756105675
20
-210.32530740540773
10
-20.570175610567492
20
-210.32530740540778
10
-20.570175610567333
20
-202.32530740540781
10
-24.570175610567343
20
-202.32530740540773
10
-24.570175610567183
20
-194.32530740540773
10
-20.570175610567176
20
-194.32530740540784
10
-20.570175610567027
20
-186.32530740540784
10
-24.570175610567027
20
-186.32530740540773
10
-24.570175610566871
20
-178.32530740540773
10
-20.570175610566871
20
-178.32530740540784
10
-20.570175610566629
20
-166.32530740540784
0
LWPOLYLINE
5
114
100
AcDbEntity
8
0
100
AcDbPolyline
90
8
70
1
43
0.0
10
-65.486330917014584
20
-192.14626097157992
10
-65.986330917014584
20
-192.14626097157989
42
0.41421356237309853
10
-66.736330917014627
20
-192.89626097157989
10
-66.736330917014769
20
-201.39626097157986
42
0.41421356237312978
10
-65.986330917014769
20
-202.14626097157989
10
-65.486330917014783
20
-202.14626097157989
42
0.41421356237309853
10
-64.73633091701474
20
-201.39626097157998
10
-64.736330917014598
20
-192.89626097157992
42
0.41421356237310197
0
LWPOLYLINE
5
115
100
AcDbEntity
8
0
100
AcDbPolyline
90
8
70
1
43
0.0
10
-44.036330917014858
20
-206.29626097158035
10
-44.036330917014851
20
-205.79626097158035
42
0.41421356237310197
10
-44.786330917014837
20
-205.04626097158038
10
-53.286330917014837
20
-205.04626097158018
42
0.41421356237309503
10
-54.036330917014865
20
-205.79626097158012
10
-54.036330917014858
20
-206.29626097158012
42
0.41421356237311585
10
-53.286330917014865
20
-207.04626097158012
10
-44.78633091701488
20
-207.0462609715803
42
0.41421356237309853
0
LWPOLYLINE
5
116
100
AcDbEntity
8
0
100
AcDbPolyline
90
8
70
1
43
0.0
10
-27.536330917014777
20
-202.29626097158069
10
-27.536330917014627
20
-194.59626097158068
42
0.41421356237310897
10
-28.28633091701461
20
-193.84626097158065
10
-28.786330917014613
20
-193.84626097158065
42
0.41421356237309337
10
-29.536330917014638
20
-194.59626097158062
10
-29.536330917014773
20
-202.29626097158064
42
0.41421356237310897
10
-28.786330917014794
20
-203.04626097158067
10
-28.286330917014794
20
-203.04626097158064
42
0.41421356237309337
0
LWPOLYLINE
5
117
100
AcDbEntity
8
0
100
AcDbPolyline
90
44
70
1
43
0.0
10
-39.5701756105667
20
-170.32530740540744
10
-39.570175610566622
20
-166.32530740540744
10
-48.570175610566622
20
-166.32530740540727
10
-48.570175610566707
20
-170.32530740540724
10
-57.570175610566707
20
-170.32530740540707
10
-57.570175610566629
20
-166.3253074054071
10
-66.570175610566636
20
-166.3253074054069
10
-66.570175610566707
20
-170.3253074054069
10
-75.570175610566707
20
-170.3253074054067
10
-75.570175610566622
20
-166.32530740540673
10
-81.070175610566622
20
-166.32530740540662
10
-81.07017561056648
20
-158.32530740540662
10
-85.070175610566451
20
-158.32530740540653
10
-85.070175610566295
20
-150.32530740540653
10
-81.070175610566295
20
-150.32530740540662
10
-81.070175610566153
20
-142.32530740540662
10
-85.070175610566153
20
-142.32530740540653
10
-85.070175610565997
20
-134.32530740540653
10
-81.070175610565997
20
-134.32530740540665
10
-81.070175610565855
20
-126.9753074054066
10
-75.57017561056584
20
-126.97530740540671
10
-75.570175610565769
20
-122.97530740540672
10
-66.570175610565784
20
-122.97530740540691
10
-66.570175610565855
20
-126.97530740540691
10
-57.570175610565855
20
-126.97530740540708
10
-57.570175610565784
20
-122.97530740540708
10
-48.570175610565784
20
-122.97530740540725
10
-48.570175610565855
20
-126.97530740540726
10
-39.570175610565855
20
-126.97530740540743
10
-39.570175610565769
20
-122.97530740540743
10
-30.570175610565773
20
-122.97530740540762
10
-30.570175610565855
20
-126.97530740540762
10
-24.570175610565848
20
-126.97530740540772
10
-24.570175610565993
20
-134.32530740540776
10
-20.570175610565997
20
-134.32530740540781
10
-20.570175610566153
20
-142.32530740540778
10
-24.57017561056615
20
-142.32530740540773
10
-24.570175610566313
20
-150.32530740540773
10
-20.570175610566309
20
-150.32530740540781
10
-20.570175610566466
20
-158.32530740540781
10
-24.570175610566466
20
-158.32530740540773
10
-24.570175610566622
20
-166.32530740540773
10
-30.570175610566626
20
-166.32530740540761
10
-30.570175610566707
20
-170.32530740540761
0
LWPOLYLINE
5
118
100
AcDbEntity
8
0
100
AcDbPolyline
90
8
70
1
43
0.0
10
-35.721741504721891
20
-153.77211754279674
10
-56.846015663567059
20
-153.77211754279634
42
-0.41421356237309681
10
-58.346015663567037
20
-152.27211754279631
10
-58.346015663566995
20
-150.14149825297872
42
-0.41421356237309503
10
-56.846015663566973
20
-148.64149825297875
10
-35.721741504721784
20
-148.64149825297915
42
-0.41421356237309592
10
-34.22174150472182
20
-150.14149825297918
10
-34.221741504721855
20
-152.27211754279676
42
-0.41421356237309764
0
LWPOLYLINE
5
119
100
AcDbEntity
8
0
100
AcDbPolyline
90
36
70
1
43
0.0
10
-81.070175610564931
20
-90.975307405406923
10
-81.070175610564718
20
-79.84446359407869
10
-24.570175610564718
20
-79.844463594079812
10
-24.570175610564931
20
-90.975307405408046
10
-20.570175610564934
20
-90.975307405408131
10
-20.570175610565098
20
-98.975307405408131
10
-24.570175610565087
20
-98.975307405408046
10
-24.570175610565247
20
-106.97530740540806
10
-20.570175610565251
20
-106.97530740540813
10
-20.570175610565414
20
-114.97530740540813
10
-24.570175610565403
20
-114.97530740540805
10
-24.570175610565567
20
-122.97530740540806
10
-20.57017561056556
20
-122.97530740540815
10
-20.570175610565649
20
-126.97530740540813
10
-30.570175610565634
20
-126.97530740540792
10
-30.570175610565549
20
-122.97530740540792
10
-39.570175610565556
20
-122.97530740540778
10
-39.570175610565634
20
-126.97530740540773
10
-48.570175610565641
20
-126.97530740540756
10
-48.570175610565556
20
-122.97530740540756
10
-57.570175610565556
20
-122.97530740540742
10
-57.570175610565634
20
-126.97530740540739
10
-66.570175610565627
20
-126.97530740540721
10
-66.570175610565556
20
-122.97530740540722
10
-75.570175610565556
20
-122.97530740540707
10
-75.570175610565627
20
-126.97530740540705
10
-85.070175610565641
20
-126.97530740540685
10
-85.07017561056557
20
-122.97530740540685
10
-81.07017561056557
20
-122.97530740540694
10
-81.070175610565386
20
-114.97530740540695
10
-85.0701756105654
20
-114.97530740540685
10
-85.070175610565258
20
-106.97530740540685
10
-81.070175610565244
20
-106.97530740540694
10
-81.070175610565087
20
-98.975307405406937
10
-85.070175610565087
20
-98.975307405406866
10
-85.070175610564931
20
-90.975307405406852
0
LWPOLYLINE
5
120
100
AcDbEntity
8
0
100
AcDbPolyline
90
40
70
1
43
0.0
10
-63.883190534795638
20
-43.59308587124508
10
-67.883190534795631
20
-43.59308587124508
10
-67.883190534795631
20
-35.59308587124508
10
-63.883190534795638
20
-35.59308587124508
10
-63.883190534795638
20
-27.593085871245076
10
-67.883190534795631
20
-27.59308587124508
10
-67.883190534795631
20
-19.593085871245076
10
-63.883190534795638
20
-19.593085871245076
10
-63.883190534795638
20
-11.593085871245075
10
-67.883190534795631
20
-11.593085871245073
10
-67.883190534795645
20
2.5730941746725078
10
-61.166298963884039
20
3.1607460412601016
10
-61.514921934874664
20
7.1455248336270643
10
-51.55297495395719
20
8.0170822611036492
10
-51.204351982966557
20
4.0323034687366777
10
-41.242405002049118
20
4.9038608962132493
10
-41.591027973039743
20
8.8886396885802412
10
-31.629080992122276
20
9.7601971160568155
10
-31.280458021131643
20
5.7754183236898236
10
-20.533190534795228
20
6.7156823926250038
10
-20.533190534795214
20
-3.5930858712450759
10
-24.533190534795214
20
-3.5930858712450764
10
-24.533190534795214
20
-11.593085871245073
10
-20.533190534795214
20
-11.593085871245075
10
-20.533190534795214
20
-19.593085871245076
10
-24.533190534795214
20
-19.593085871245073
10
-24.533190534795214
20
-27.59308587124508
10
-20.533190534795214
20
-27.59308587124508
10
-20.533190534795214
20
-35.59308587124508
10
-24.533190534795214
20
-35.59308587124508
10
-24.533190534795224
20
-47.593085871245073
10
-32.533190534795224
20
-47.593085871245073
10
-32.53319053479521
20
-43.59308587124508
10
-40.533190534795224
20
-43.59308587124508
10
-40.53319053479521
20
-47.593085871245073
10
-48.53319053479521
20
-47.593085871245073
10
-48.53319053479521
20
-43.59308587124508
10
-56.533190534795217
20
-43.59308587124508
10
-56.53319053479521
20
-47.593085871245073
10
-63.883190534795638
20
-47.593085871245066
0
LWPOLYLINE
5
121
100
AcDbEntity
8
0
100
AcDbPolyline
90
8
70
1
43
0.0
10
-56.770555291741246
20
-6.9935776391119848
10
-38.680797569074343
20
-6.9935776391119839
42
-0.41421356237309592
10
-37.180797569074336
20
-8.4935776391119884
10
-37.180797569074343
20
-22.145091417070184
42
-0.4142135623730942
10
-38.680797569074336
20
-23.645091417070176
10
-56.770555291741232
20
-23.645091417070184
42
-0.41421356237309681
10
-58.270555291741239
20
-22.145091417070173
10
-58.270555291741232
20
-8.4935776391119848
42
-0.41421356237309337
0
LWPOLYLINE
5
122
100
AcDbEntity
8
0
100
AcDbPolyline
90
24
70
1
43
0.0
10
-56.526293452942575
20
64.300613112498411
10
-56.878139885673697
20
68.322236241155025
10
-46.916192904756251
20
69.193793668631642
10
-46.564346472025129
20
65.172170539975028
10
-36.602399491107668
20
66.043727967451659
10
-36.954245923838791
20
70.065351096108259
10
-3.368051739748017
20
73.003762338196637
42
-0.41421356237309326
10
-1.7430260784889218
20
71.640203905180499
10
3.6170521004922733
20
10.374229972538176
42
-0.41421356237309365
10
2.2534936674761479
20
8.7492043112790725
10
-31.283926241624783
20
5.8150602653239991
10
-31.62908099212228
20
9.7601971160568528
10
-41.591027973039736
20
8.8886396885802377
10
-41.245873222542244
20
4.9435028378473778
10
-51.20782020345969
20
4.0719454103707662
10
-51.552974953957182
20
8.017082261103619
10
-61.51492193487465
20
7.1455248336270039
10
-61.169767184377157
20
3.2003879828941395
10
-70.468719293221284
20
2.3868350906997668
42
-0.41421356237309231
10
-72.093744954480371
20
3.7503935237158972
10
-77.453823133461583
20
65.016367456358225
42
-0.41421356237309537
10
-76.090264700445431
20
66.641393117617341
10
-66.840086866591179
20
67.450678813678408
10
-66.488240433860042
20
63.429055685021794
0
LWPOLYLINE
5
123
100
AcDbEntity
8
0
100
AcDbPolyline
90
12
70
1
43
0.0
10
-6.0515841672952497
20
63.614146754186407
10
-18.005920544396254
20
62.568277841214481
42
-0.13689833259340095
10
-18.798465688287976
20
62.716462352133973
10
-20.127231340420494
20
63.369747773456673
42
0.13689833259337328
10
-20.919776484312198
20
63.517932284376158
10
-53.794201521340014
20
60.641792773703344
42
0.13689833259337419
10
-54.548974153377102
20
60.358235498517921
10
-55.744111046624482
20
59.484137216630245
42
-0.13689833259339687
10
-56.498883678661549
20
59.20057994144485
10
-68.453220055762571
20
58.15471102847291
10
-65.03845805490927
20
19.123802757238519
10
-2.6368221664419167
20
24.583238482952019
0
LWPOLYLINE
5
124
100
AcDbEntity
8
0
100
AcDbPolyline
90
40
70
1
43
0.0
10
-107.23319053479599
20
-19.59308587124422
10
-111.23319053479599
20
-19.593085871244142
10
-111.23319053479617
20
-27.593085871244138
10
-107.23319053479615
20
-27.59308587124422
10
-107.23319053479631
20
-35.593085871244213
10
-111.23319053479632
20
-35.593085871244135
10
-111.23319053479648
20
-43.593085871244135
10
-107.23319053479648
20
-43.593085871244213
10
-107.23319053479663
20
-51.593085871244213
10
-111.23319053479663
20
-51.593085871244135
10
-111.23319053479692
20
-65.759265917161713
10
-104.51629896388528
20
-66.346917783749447
10
-104.86492193487598
20
-70.3316965761164
10
-94.902974953958562
20
-71.203254003593173
10
-94.55435198296783
20
-67.21847521122622
10
-84.592405002050398
20
-68.090032638702979
10
-84.941027973041116
20
-72.074811431069975
10
-74.979080992123656
20
-72.946368858546734
10
-74.630458021132952
20
-68.961590066179753
10
-63.883190534796583
20
-69.901854135115144
10
-63.883190534796377
20
-59.593085871245073
10
-67.883190534796384
20
-59.593085871244995
10
-67.883190534796228
20
-51.593085871244995
10
-63.883190534796213
20
-51.593085871245073
10
-63.883190534796057
20
-43.59308587124508
10
-67.883190534796057
20
-43.593085871244995
10
-67.883190534795901
20
-35.593085871244995
10
-63.883190534795901
20
-35.593085871245073
10
-63.883190534795737
20
-27.593085871245076
10
-67.883190534795744
20
-27.593085871244995
10
-67.883190534795503
20
-15.593085871245007
10
-75.883190534795489
20
-15.593085871244847
10
-75.883190534795574
20
-19.59308587124486
10
-83.883190534795574
20
-19.593085871244689
10
-83.883190534795503
20
-15.593085871244687
10
-91.883190534795489
20
-15.593085871244527
10
-91.883190534795574
20
-19.593085871244533
10
-99.883190534795588
20
-19.593085871244369
10
-99.883190534795503
20
-15.593085871244368
10
-107.23319053479551
20
-15.593085871244226
0
LWPOLYLINE
5
125
100
AcDbEntity
8
0
100
AcDbPolyline
90
8
70
1
43
0.0
10
-81.770965335341685
20
-50.132487598526758
10
-87.16923879041039
20
-50.132487598526637
42
-0.41421356237309681
10
-88.669238790410361
20
-48.632487598526623
10
-88.669238790410247
20
-42.959161519383613
42
-0.41421356237309681
10
-87.169238790410219
20
-41.459161519383649
10
-81.770965335341543
20
-41.459161519383741
42
-0.41421356237309681
10
-80.270965335341543
20
-42.959161519383777
10
-80.270965335341643
20
-48.632487598526779
42
-0.41421356237309681
0
LWPOLYLINE
5
126
100
AcDbEntity
8
0
100
AcDbPolyline
90
24
70
1
43
0.0
10
-209.02629345294255
20
64.300613112498411
10
-209.3781398856737
20
68.322236241155025
10
-199.41619290475626
20
69.193793668631642
10
-199.06434647202508
20
65.172170539975028
10
-189.10239949110769
20
66.043727967451659
10
-189.45424592383881
20
70.065351096108259
10
-155.86805173974801
20
73.003762338196637
42
-0.41421356237309848
10
-154.2430260784889
20
71.640203905180499
10
-148.88294789950771
20
10.374229972538176
42
-0.41421356237309154
10
-150.24650633252384
20
8.7492043112790743
10
-183.78392624162478
20
5.8150602653239991
10
-184.12908099212228
20
9.7601971160568528
10
-194.09102797303973
20
8.8886396885802377
10
-193.74587322254223
20
4.9435028378473778
10
-203.7078202034597
20
4.0719454103707662
10
-204.05297495395718
20
8.017082261103619
10
-214.01492193487462
20
7.1455248336270039
10
-213.66976718437712
20
3.2003879828941395
10
-222.96871929322128
20
2.3868350906997655
42
-0.41421356237309054
10
-224.59374495448037
20
3.7503935237158972
10
-229.95382313346155
20
65.016367456358225
42
-0.4142135623730917
10
-228.59026470044543
20
66.641393117617341
10
-219.34008686659115
20
67.450678813678408
10
-218.98824043386003
20
63.429055685021794
0
LWPOLYLINE
5
127
100
AcDbEntity
8
0
100
AcDbPolyline
90
12
70
1
43
0.0
10
-158.55158416729523
20
63.614146754186407
10
-170.50592054439625
20
62.568277841214474
42
-0.13689833259338138
10
-171.29846568828796
20
62.716462352133973
10
-172.62723134042048
20
63.369747773456673
42
0.13689833259337814
10
-173.41977648431222
20
63.517932284376158
10
-206.29420152134003
20
60.641792773703344
42
0.13689833259337444
10
-207.04897415337712
20
60.358235498517914
10
-208.24411104662448
20
59.484137216630238
42
-0.13689833259338896
10
-208.99888367866151
20
59.200579941444857
10
-220.95322005576259
20
58.15471102847291
10
-217.53845805490926
20
19.123802757238519
10
-155.1368221664419
20
24.583238482952019
0
LWPOLYLINE
5
128
100
AcDbEntity
8
0
100
AcDbPolyline
90
36
70
1
43
0.0
10
-167.07017561056557
20
-47.625307405408144
10
-167.07017561056557
20
-43.625307405408137
10
-158.07017561056557
20
-43.625307405408151
10
-158.07017561056557
20
-47.625307405408144
10
-149.07017561056557
20
-47.625307405408144
10
-149.07017561056557
20
-43.625307405408137
10
-140.0701756105656
20
-43.625307405408151
10
-140.07017561056557
20
-47.625307405408144
10
-131.07017561056557
20
-47.625307405408144
10
-131.07017561056557
20
-43.625307405408151
10
-122.07017561056557
20
-43.625307405408151
10
-122.07017561056557
20
-47.625307405408144
10
-112.57017561056556
20
-47.625307405408144
10
-112.57017561056557
20
-35.625307405408151
10
-116.57017561056556
20
-35.625307405408151
10
-116.57017561056557
20
-27.625307405408151
10
-112.57017561056557
20
-27.625307405408151
10
-112.57017561056557
20
-19.625307405408151
10
-116.57017561056556
20
-19.625307405408151
10
-116.57017561056556
20
-11.625307405408151
10
-112.57017561056557
20
-11.625307405408151
10
-112.57017561056557
20
-3.6253074054081513
10
-116.57017561056556
20
-3.6253074054081513
10
-116.57017561056556
20
5.97314729709489
10
-173.07017561056554
20
5.97314729709489
10
-173.07017561056557
20
-3.6253074054081513
10
-177.07017561056557
20
-3.6253074054081513
10
-177.0701756105656
20
-11.625307405408151
10
-173.07017561056554
20
-11.625307405408151
10
-173.07017561056557
20
-19.625307405408151
10
-177.07017561056557
20
-19.625307405408151
10
-177.07017561056557
20
-27.625307405408151
10
-173.07017561056554
20
-27.625307405408151
10
-173.07017561056554
20
-35.625307405408151
10
-177.07017561056557
20
-35.625307405408151
10
-177.07017561056557
20
-47.625307405408144
0
LWPOLYLINE
5
129
100
AcDbEntity
8
0
100
AcDbPolyline
90
8
70
1
43
0.0
10
-132.15402030411812
20
-21.804353839235162
10
-131.65402030411812
20
-21.804353839235162
42
0.41421356237310025
10
-130.90402030411812
20
-21.054353839235162
10
-130.90402030411812
20
-12.554353839235164
42
0.41421356237309936
10
-131.65402030411812
20
-11.80435383923516
10
-132.15402030411812
20
-11.804353839235162
42
0.41421356237310542
10
-132.90402030411812
20
-12.554353839235162
10
-132.90402030411812
20
-21.054353839235162
42
0.41421356237310025
0
LWPOLYLINE
5
130
100
AcDbEntity
8
0
100
AcDbPolyline
90
8
70
1
43
0.0
10
-153.60402030411814
20
-7.6543538392351635
10
-153.60402030411814
20
-8.1543538392351635
42
0.4142135623731007
10
-152.85402030411814
20
-8.9043538392351724
10
-144.35402030411814
20
-8.9043538392351618
42
0.41421356237310764
10
-143.60402030411814
20
-8.1543538392351618
10
-143.60402030411814
20
-7.6543538392351618
42
0.4142135623731007
10
-144.35402030411811
20
-6.9043538392351547
10
-152.85402030411811
20
-6.9043538392351635
42
0.41421356237310764
0
LWPOLYLINE
5
131
100
AcDbEntity
8
0
100
AcDbPolyline
90
8
70
1
43
0.0
10
-170.10402030411811
20
-11.65435383923516
10
-170.10402030411811
20
-19.354353839235163
42
0.41421356237306295
10
-169.35402030411811
20
-20.104353839235181
10
-168.85402030411811
20
-20.104353839235163
42
0.41421356237306295
10
-168.10402030411811
20
-19.354353839235163
10
-168.10402030411811
20
-11.65435383923516
42
0.41421356237306123
10
-168.85402030411811
20
-10.904353839235148
10
-169.35402030411811
20
-10.904353839235162
42
0.41421356237306123
0
LWPOLYLINE
5
132
100
AcDbEntity
8
0
100
AcDbPolyline
90
44
70
1
43
0.0
10
-158.07017561056557
20
-43.625307405408151
10
-158.07017561056557
20
-47.625307405408151
10
-149.07017561056557
20
-47.625307405408151
10
-149.07017561056557
20
-43.625307405408151
10
-140.07017561056557
20
-43.625307405408151
10
-140.07017561056557
20
-47.625307405408151
10
-131.07017561056557
20
-47.625307405408151
10
-131.07017561056557
20
-43.625307405408151
10
-122.07017561056557
20
-43.625307405408151
10
-122.07017561056557
20
-47.625307405408151
10
-116.5701756105656
20
-47.625307405408151
10
-116.57017561056556
20
-55.625307405408151
10
-112.57017561056557
20
-55.625307405408151
10
-112.57017561056557
20
-63.625307405408151
10
-116.57017561056556
20
-63.625307405408151
10
-116.57017561056556
20
-71.625307405408151
10
-112.57017561056557
20
-71.625307405408151
10
-112.57017561056557
20
-79.625307405408151
10
-116.57017561056556
20
-79.625307405408151
10
-116.57017561056557
20
-86.975307405408159
10
-122.07017561056558
20
-86.975307405408159
10
-122.07017561056557
20
-90.975307405408159
10
-131.07017561056557
20
-90.975307405408159
10
-131.07017561056557
20
-86.975307405408159
10
-140.07017561056557
20
-86.975307405408159
10
-140.07017561056557
20
-90.975307405408159
10
-149.07017561056557
20
-90.975307405408159
10
-149.07017561056557
20
-86.975307405408159
10
-158.07017561056557
20
-86.975307405408159
10
-158.07017561056557
20
-90.975307405408159
10
-167.07017561056557
20
-90.975307405408159
10
-167.07017561056557
20
-86.975307405408159
10
-173.07017561056557
20
-86.975307405408159
10
-173.07017561056557
20
-79.625307405408151
10
-177.0701756105656
20
-79.625307405408151
10
-177.07017561056557
20
-71.625307405408151
10
-173.07017561056557
20
-71.625307405408151
10
-173.07017561056557
20
-63.625307405408151
10
-177.0701756105656
20
-63.625307405408151
10
-177.07017561056557
20
-55.625307405408151
10
-173.07017561056557
20
-55.625307405408151
10
-173.07017561056557
20
-47.625307405408151
10
-167.07017561056557
20
-47.625307405408151
10
-167.07017561056557
20
-43.625307405408151
0
LWPOLYLINE
5
133
100
AcDbEntity
8
0
100
AcDbPolyline
90
8
70
1
43
0.0
10
-161.91860971641006
20
-60.178497268018923
10
-140.79433555756486
20
-60.178497268018923
42
-0.41421356237309503
10
-139.29433555756486
20
-61.67849726801893
10
-139.29433555756486
20
-63.809116557836518
42
-0.41421356237309503
10
-140.79433555756486
20
-65.309116557836518
10
-161.91860971641006
20
-65.309116557836504
42
-0.41421356237309503
10
-163.41860971641006
20
-63.809116557836518
10
-163.41860971641006
20
-61.67849726801893
42
-0.41421356237309503
0
LWPOLYLINE
5
134
100
AcDbEntity
8
0
100
AcDbPolyline
90
36
70
1
43
0.0
10
-116.57017561056557
20
-122.97530740540799
10
-116.57017561056557
20
-134.10615121673624
10
-173.07017561056557
20
-134.10615121673621
10
-173.07017561056557
20
-122.97530740540796
10
-177.07017561056557
20
-122.97530740540796
10
-177.07017561056557
20
-114.97530740540797
10
-173.07017561056557
20
-114.97530740540797
10
-173.07017561056557
20
-106.97530740540797
10
-177.07017561056557
20
-106.97530740540797
10
-177.07017561056557
20
-98.975307405407989
10
-173.07017561056557
20
-98.975307405407989
10
-173.07017561056557
20
-90.975307405407975
10
-177.07017561056557
20
-90.975307405407975
10
-177.07017561056557
20
-86.975307405407989
10
-167.0701756105656
20
-86.975307405407989
10
-167.0701756105656
20
-90.975307405407989
10
-158.0701756105656
20
-90.975307405407975
10
-158.07017561056557
20
-86.975307405407989
10
-149.07017561056557
20
-86.975307405407989
10
-149.07017561056557
20
-90.975307405407989
10
-140.0701756105656
20
-90.975307405407975
10
-140.0701756105656
20
-86.975307405407989
10
-131.07017561056557
20
-86.975307405407989
10
-131.07017561056557
20
-90.975307405407975
10
-122.0701756105656
20
-90.975307405407975
10
-122.07017561056558
20
-86.975307405407989
10
-112.57017561056557
20
-86.975307405407989
10
-112.57017561056557
20
-90.975307405407989
10
-116.57017561056557
20
-90.975307405407975
10
-116.57017561056557
20
-98.97530740540796
10
-112.57017561056557
20
-98.975307405407989
10
-112.57017561056557
20
-106.97530740540799
10
-116.57017561056557
20
-106.97530740540797
10
-116.5701756105656
20
-114.97530740540797
10
-112.57017561056557
20
-114.97530740540797
10
-112.57017561056557
20
-122.97530740540799
0
LWPOLYLINE
5
135
100
AcDbEntity
8
0
100
AcDbPolyline
90
40
70
1
43
0.0
10
-90.407160686336738
20
-194.35752893957161
10
-86.407160686336738
20
-194.35752893957161
10
-86.407160686336738
20
-186.35752893957161
10
-90.407160686336738
20
-186.35752893957161
10
-90.407160686336724
20
-178.35752893957164
10
-86.407160686336738
20
-178.35752893957164
10
-86.407160686336724
20
-170.35752893957164
10
-90.407160686336724
20
-170.35752893957164
10
-90.407160686336724
20
-162.35752893957164
10
-86.407160686336724
20
-162.35752893957164
10
-86.407160686336724
20
-148.19134889365404
10
-93.12405225724838
20
-147.60369702706646
10
-92.775429286257761
20
-143.61891823469949
10
-102.73737626717519
20
-142.74736080722289
10
-103.08599923816584
20
-146.73213959958989
10
-113.04794621908329
20
-145.86058217211328
10
-112.69932324809264
20
-141.87580337974629
10
-122.66127022901014
20
-141.00424595226971
10
-123.00989320000073
20
-144.98902474463671
10
-133.75716068633716
20
-144.04876067570154
10
-133.75716068633716
20
-154.35752893957161
10
-129.75716068633713
20
-154.35752893957161
10
-129.75716068633713
20
-162.35752893957164
10
-133.75716068633716
20
-162.35752893957164
10
-133.75716068633716
20
-170.35752893957164
10
-129.75716068633713
20
-170.35752893957164
10
-129.75716068633713
20
-178.35752893957164
10
-133.75716068633716
20
-178.35752893957164
10
-133.75716068633716
20
-186.35752893957161
10
-129.75716068633716
20
-186.35752893957161
10
-129.75716068633716
20
-198.35752893957161
10
-121.75716068633716
20
-198.35752893957161
10
-121.75716068633716
20
-194.35752893957158
10
-113.75716068633716
20
-194.35752893957161
10
-113.75716068633716
20
-198.35752893957164
10
-105.75716068633717
20
-198.35752893957161
10
-105.75716068633717
20
-194.35752893957158
10
-97.757160686337144
20
-194.35752893957161
10
-97.757160686337158
20
-198.35752893957164
10
-90.407160686337136
20
-198.35752893957164
0
LWPOLYLINE
5
136
100
AcDbEntity
8
0
100
AcDbPolyline
90
8
70
1
43
0.0
10
-115.86938588579166
20
-163.81812721228957
10
-110.47111243072294
20
-163.8181272122896
42
-0.41421356237308815
10
-108.97111243072294
20
-165.31812721228957
10
-108.97111243072291
20
-170.99145329143258
42
-0.41421356237309503
10
-110.47111243072294
20
-172.49145329143261
10
-115.86938588579166
20
-172.49145329143258
42
-0.41421356237309503
10
-117.36938588579164
20
-170.99145329143258
10
-117.36938588579167
20
-165.3181272122896
42
-0.41421356237309503
0
LWPOLYLINE
5
137
100
AcDbEntity
8
0
100
AcDbPolyline
90
40
70
1
43
0.0
10
-133.75716068633659
20
-170.35752893957164
10
-129.75716068633656
20
-170.35752893957169
10
-129.75716068633676
20
-178.35752893957167
10
-133.75716068633676
20
-178.35752893957161
10
-133.7571606863369
20
-186.35752893957161
10
-129.7571606863369
20
-186.35752893957169
10
-129.75716068633707
20
-194.35752893957169
10
-133.75716068633707
20
-194.35752893957161
10
-133.75716068633719
20
-202.35752893957164
10
-129.75716068633722
20
-202.35752893957169
10
-129.7571606863375
20
-216.52370898548929
10
-136.47405225724913
20
-217.11136085207673
10
-136.12542928625857
20
-221.09613964444372
10
-146.08737626717604
20
-221.9676970719201
10
-146.4359992381666
20
-217.98291827955313
10
-156.39794621908408
20
-218.85447570702951
10
-156.04932324809351
20
-222.83925449939653
10
-166.01127022901099
20
-223.71081192687288
10
-166.35989320000152
20
-219.72603313450588
10
-177.10716068633801
20
-220.66629720344085
10
-177.10716068633781
20
-210.35752893957078
10
-173.10716068633781
20
-210.35752893957084
10
-173.10716068633764
20
-202.35752893957084
10
-177.10716068633764
20
-202.35752893957078
10
-177.10716068633752
20
-194.35752893957076
10
-173.10716068633749
20
-194.35752893957084
10
-173.10716068633729
20
-186.35752893957084
10
-177.10716068633732
20
-186.35752893957076
10
-177.10716068633718
20
-178.35752893957076
10
-173.10716068633718
20
-178.35752893957081
10
-173.10716068633693
20
-166.35752893957087
10
-165.1071606863369
20
-166.35752893957101
10
-165.10716068633701
20
-170.35752893957101
10
-157.10716068633701
20
-170.35752893957118
10
-157.10716068633695
20
-166.35752893957115
10
-149.10716068633693
20
-166.35752893957132
10
-149.10716068633701
20
-170.3575289395713
10
-141.10716068633701
20
-170.35752893957147
10
-141.10716068633693
20
-166.35752893957147
10
-133.75716068633648
20
-166.35752893957161
0
LWPOLYLINE
5
138
100
AcDbEntity
8
0
100
AcDbPolyline
90
8
70
1
43
0.0
10
-140.8697959293917
20
-206.95703717170457
10
-158.95955365205862
20
-206.9570371717042
42
-0.41421356237309503
10
-160.45955365205856
20
-205.4570371717042
10
-160.45955365205828
20
-191.805523393746
42
-0.41421356237309159
10
-158.95955365205828
20
-190.305523393746
10
-140.86979592939139
20
-190.30552339374637
42
-0.41421356237309853
10
-139.36979592939142
20
-191.8055233937464
10
-139.3697959293917
20
-205.4570371717046
42
-0.41421356237308815
0
LWPOLYLINE
5
139
100
AcDbEntity
8
0
100
AcDbPolyline
90
36
70
1
43
0.0
10
-183.07017561056659
20
-166.32530740540761
10
-183.07017561056671
20
-170.32530740540764
10
-192.07017561056671
20
-170.32530740540744
10
-192.07017561056662
20
-166.32530740540744
10
-201.07017561056662
20
-166.32530740540727
10
-201.07017561056671
20
-170.32530740540727
10
-210.07017561056671
20
-170.32530740540707
10
-210.07017561056659
20
-166.3253074054071
10
-219.07017561056662
20
-166.3253074054069
10
-219.07017561056674
20
-170.32530740540693
10
-228.07017561056671
20
-170.32530740540676
10
-228.07017561056665
20
-166.32530740540673
10
-237.57017561056665
20
-166.32530740540656
10
-237.57017561056685
20
-178.32530740540653
10
-233.57017561056688
20
-178.32530740540662
10
-233.57017561056705
20
-186.32530740540662
10
-237.57017561056705
20
-186.32530740540656
10
-237.57017561056716
20
-194.32530740540656
10
-233.57017561056719
20
-194.32530740540665
10
-233.57017561056733
20
-202.32530740540665
10
-237.57017561056733
20
-202.32530740540653
10
-237.5701756105675
20
-210.32530740540659
10
-233.5701756105675
20
-210.32530740540665
10
-233.57017561056767
20
-219.92376210790968
10
-177.07017561056767
20
-219.92376210791079
10
-177.07017561056747
20
-210.32530740540773
10
-173.0701756105675
20
-210.32530740540778
10
-173.07017561056733
20
-202.32530740540781
10
-177.07017561056733
20
-202.32530740540773
10
-177.07017561056719
20
-194.32530740540773
10
-173.07017561056716
20
-194.32530740540784
10
-173.07017561056699
20
-186.32530740540784
10
-177.07017561056702
20
-186.32530740540773
10
-177.07017561056685
20
-178.32530740540773
10
-173.07017561056685
20
-178.32530740540784
10
-173.07017561056659
20
-166.32530740540784
0
LWPOLYLINE
5
140
100
AcDbEntity
8
0
100
AcDbPolyline
90
8
70
1
43
0.0
10
-217.98633091701458
20
-192.14626097157992
10
-218.48633091701458
20
-192.14626097157989
42
0.4142135623730257
10
-219.23633091701461
20
-192.89626097157989
10
-219.23633091701475
20
-201.39626097157986
42
0.41421356237308116
10
-218.48633091701481
20
-202.14626097157998
10
-217.98633091701475
20
-202.14626097157989
42
0.41421356237310897
10
-217.23633091701475
20
-201.39626097157998
10
-217.23633091701461
20
-192.89626097157992
42
0.4142135623730257
0
LWPOLYLINE
5
141
100
AcDbEntity
8
0
100
AcDbPolyline
90
8
70
1
43
0.0
10
-196.53633091701488
20
-206.29626097158035
10
-196.53633091701482
20
-205.79626097158035
42
0.41421356237303952
10
-197.28633091701482
20
-205.04626097158035
10
-205.78633091701482
20
-205.04626097158018
42
0.41421356237303952
10
-206.53633091701482
20
-205.79626097158012
10
-206.53633091701482
20
-206.29626097158012
42
0.4142135623730534
10
-205.78633091701491
20
-207.04626097158015
10
-197.28633091701485
20
-207.0462609715803
42
0.4142135623730534
0
LWPOLYLINE
5
142
100
AcDbEntity
8
0
100
AcDbPolyline
90
8
70
1
43
0.0
10
-180.03633091701482
20
-202.29626097158069
10
-180.03633091701462
20
-194.59626097158068
42
0.41421356237303952
10
-180.7863309170146
20
-193.84626097158062
10
-181.28633091701462
20
-193.84626097158065
42
0.41421356237312279
10
-182.03633091701465
20
-194.59626097158062
10
-182.03633091701477
20
-202.29626097158064
42
0.41421356237306733
10
-181.28633091701482
20
-203.04626097158069
10
-180.78633091701479
20
-203.04626097158064
42
0.4142135623730534
0
LWPOLYLINE
5
143
100
AcDbEntity
8
0
100
AcDbPolyline
90
24
70
1
43
0.0
10
-141.11405776819211
20
-278.25122792331513
10
-140.76221133546107
20
-282.27285105197177
10
-150.72415831637852
20
-283.14440847944815
10
-151.07600474910959
20
-279.12278535079156
10
-161.03795173002706
20
-279.99434277826794
10
-160.686105297296
20
-284.01596590692458
10
-194.27229948138685
20
-286.95437714901226
42
-0.41421356237308754
10
-195.89732514264591
20
-285.59081871599614
10
-201.2574033216259
20
-224.32484478335368
42
-0.41421356237309503
10
-199.89384488860975
20
-222.6998191220946
10
-166.35642497950874
20
-219.76567507614018
10
-166.01127022901136
20
-223.71081192687308
10
-156.04932324809386
20
-222.83925449939665
10
-156.39447799859127
20
-218.89411764866378
10
-146.43253101767382
20
-218.02256022118738
10
-146.08737626717638
20
-221.96769707192021
10
-136.12542928625888
20
-221.09613964444378
10
-136.47058403675632
20
-217.15100279371092
10
-127.17163192791219
20
-216.33744990151672
42
-0.41421356237309503
10
-125.5466062666531
20
-217.70100833453287
10
-120.18652808767311
20
-278.96698226717535
42
-0.41421356237308871
10
-121.55008652068929
20
-280.59200792843444
10
-130.80026435454357
20
-281.40129362449534
10
-131.15211078727464
20
-277.3796704958387
0
LWPOLYLINE
5
144
100
AcDbEntity
8
0
100
AcDbPolyline
90
12
70
1
43
0.0
10
-191.58876705383943
20
-277.56476156500207
10
-179.63443067673842
20
-276.51889265203039
42
-0.13689833259334089
10
-178.8418855328467
20
-276.66707716294991
10
-177.51311988071419
20
-277.32036258427269
42
0.13689833259337081
10
-176.72057473682247
20
-277.46854709519215
10
-143.84614969979461
20
-274.59240758452
42
0.13689833259337666
10
-143.09137706775749
20
-274.30885030933456
10
-141.89624017451013
20
-273.43475202744696
42
-0.13689833259343873
10
-141.14146754247304
20
-273.15119475226152
10
-129.18713116537197
20
-272.10532583928983
10
-132.6018931662245
20
-233.07441756805537
10
-195.003529054692
20
-238.53385329376766
0
LWPOLYLINE
5
145
100
AcDbEntity
8
0
100
AcDbPolyline
90
40
70
1
43
0.0
10
-216.38319053479563
20
-43.59308587124508
10
-220.38319053479563
20
-43.59308587124508
10
-220.38319053479563
20
-35.59308587124508
10
-216.38319053479563
20
-35.59308587124508
10
-216.38319053479563
20
-27.593085871245076
10
-220.38319053479563
20
-27.59308587124508
10
-220.38319053479563
20
-19.593085871245076
10
-216.38319053479563
20
-19.593085871245076
10
-216.38319053479563
20
-11.593085871245075
10
-220.38319053479563
20
-11.593085871245073
10
-220.38319053479566
20
2.5730941746725078
10
-213.66629896388403
20
3.1607460412601016
10
-214.01492193487471
20
7.1455248336270643
10
-204.05297495395718
20
8.0170822611036492
10
-203.70435198296659
20
4.0323034687366777
10
-193.74240500204911
20
4.9038608962132493
10
-194.09102797303976
20
8.8886396885802412
10
-184.12908099212231
20
9.7601971160568155
10
-183.78045802113164
20
5.7754183236898236
10
-173.03319053479524
20
6.7156823926250038
10
-173.03319053479524
20
-3.5930858712450759
10
-177.03319053479527
20
-3.5930858712450764
10
-177.03319053479527
20
-11.593085871245073
10
-173.03319053479524
20
-11.593085871245075
10
-173.03319053479524
20
-19.593085871245076
10
-177.03319053479527
20
-19.593085871245073
10
-177.03319053479527
20
-27.59308587124508
10
-173.03319053479524
20
-27.59308587124508
10
-173.03319053479524
20
-35.59308587124508
10
-177.03319053479527
20
-35.59308587124508
10
-177.03319053479527
20
-47.593085871245073
10
-185.03319053479527
20
-47.593085871245073
10
-185.03319053479521
20
-43.59308587124508
10
-193.03319053479524
20
-43.59308587124508
10
-193.03319053479524
20
-47.593085871245073
10
-201.03319053479524
20
-47.593085871245073
10
-201.03319053479524
20
-43.59308587124508
10
-209.03319053479521
20
-43.59308587124508
10
-209.03319053479521
20
-47.593085871245073
10
-216.38319053479563
20
-47.593085871245066
0
LWPOLYLINE
5
146
100
AcDbEntity
8
0
100
AcDbPolyline
90
8
70
1
43
0.0
10
-209.27055529174126
20
-6.9935776391119848
10
-191.18079756907437
20
-6.9935776391120017
42
-0.41421356237310197
10
-189.68079756907434
20
-8.4935776391119884
10
-189.68079756907434
20
-22.145091417070184
42
-0.41421356237309503
10
-191.18079756907434
20
-23.645091417070176
10
-209.27055529174126
20
-23.645091417070169
42
-0.41421356237309681
10
-210.77055529174123
20
-22.145091417070173
10
-210.77055529174123
20
-8.4935776391119848
42
-0.41421356237309503
0
LWPOLYLINE
5
147
100
AcDbEntity
8
0
100
AcDbPolyline
90
40
70
1
43
0.0
10
-259.73319053479599
20
-19.59308587124422
10
-263.73319053479599
20
-19.593085871244142
10
-263.73319053479611
20
-27.593085871244138
10
-259.73319053479611
20
-27.59308587124422
10
-259.73319053479634
20
-35.593085871244213
10
-263.73319053479628
20
-35.593085871244135
10
-263.73319053479645
20
-43.593085871244135
10
-259.73319053479651
20
-43.593085871244213
10
-259.73319053479662
20
-51.593085871244213
10
-263.73319053479662
20
-51.593085871244135
10
-263.73319053479696
20
-65.759265917161713
10
-257.01629896388528
20
-66.346917783749447
10
-257.36492193487601
20
-70.3316965761164
10
-247.40297495395853
20
-71.203254003593173
10
-247.05435198296783
20
-67.21847521122622
10
-237.09240500205038
20
-68.090032638702979
10
-237.44102797304112
20
-72.074811431069975
10
-227.47908099212367
20
-72.946368858546734
10
-227.13045802113297
20
-68.961590066179753
10
-216.3831905347966
20
-69.901854135115144
10
-216.38319053479637
20
-59.593085871245073
10
-220.38319053479637
20
-59.593085871244995
10
-220.3831905347962
20
-51.593085871244995
10
-216.3831905347962
20
-51.593085871245073
10
-216.38319053479606
20
-43.59308587124508
10
-220.38319053479603
20
-43.593085871244995
10
-220.38319053479586
20
-35.593085871244995
10
-216.38319053479589
20
-35.593085871245073
10
-216.38319053479574
20
-27.593085871245076
10
-220.38319053479572
20
-27.593085871244995
10
-220.38319053479552
20
-15.593085871245007
10
-228.38319053479549
20
-15.593085871244847
10
-228.38319053479557
20
-19.59308587124486
10
-236.3831905347956
20
-19.593085871244689
10
-236.38319053479549
20
-15.593085871244687
10
-244.38319053479546
20
-15.593085871244527
10
-244.38319053479557
20
-19.593085871244533
10
-252.3831905347956
20
-19.593085871244369
10
-252.38319053479546
20
-15.593085871244368
10
-259.73319053479548
20
-15.593085871244226
0
LWPOLYLINE
5
148
100
AcDbEntity
8
0
100
AcDbPolyline
90
8
70
1
43
0.0
10
-234.27096533534169
20
-50.132487598526758
10
-239.66923879041042
20
-50.132487598526637
42
-0.41421356237309337
10
-241.16923879041036
20
-48.632487598526623
10
-241.16923879041025
20
-42.959161519383613
42
-0.41421356237309681
10
-239.66923879041022
20
-41.459161519383649
10
-234.27096533534151
20
-41.459161519383727
42
-0.41421356237309337
10
-232.77096533534151
20
-42.959161519383777
10
-232.77096533534163
20
-48.632487598526779
42
-0.41421356237309681
0
LWPOLYLINE
5
149
100
AcDbEntity
8
0
100
AcDbPolyline
90
36
70
1
43
0.0
10
-233.57017561056492
20
-90.975307405406923
10
-233.57017561056469
20
-79.84446359407869
10
-177.07017561056466
20
-79.844463594079812
10
-177.07017561056492
20
-90.975307405408046
10
-173.07017561056489
20
-90.975307405408131
10
-173.07017561056509
20
-98.975307405408131
10
-177.07017561056512
20
-98.975307405408046
10
-177.07017561056523
20
-106.97530740540806
10
-173.07017561056523
20
-106.97530740540813
10
-173.0701756105654
20
-114.97530740540813
10
-177.0701756105654
20
-114.97530740540805
10
-177.07017561056551
20
-122.97530740540806
10
-173.07017561056554
20
-122.97530740540815
10
-173.07017561056563
20
-126.97530740540813
10
-183.07017561056563
20
-126.97530740540792
10
-183.07017561056554
20
-122.97530740540792
10
-192.07017561056557
20
-122.97530740540778
10
-192.07017561056563
20
-126.97530740540773
10
-201.07017561056563
20
-126.97530740540756
10
-201.07017561056554
20
-122.97530740540756
10
-210.07017561056554
20
-122.97530740540742
10
-210.07017561056563
20
-126.97530740540739
10
-219.07017561056563
20
-126.97530740540721
10
-219.07017561056557
20
-122.97530740540722
10
-228.07017561056554
20
-122.97530740540707
10
-228.07017561056563
20
-126.97530740540705
10
-237.5701756105656
20
-126.97530740540685
10
-237.57017561056557
20
-122.97530740540685
10
-233.57017561056554
20
-122.97530740540694
10
-233.5701756105654
20
-114.97530740540695
10
-237.5701756105654
20
-114.97530740540685
10
-237.57017561056526
20
-106.97530740540685
10
-233.57017561056526
20
-106.97530740540694
10
-233.57017561056506
20
-98.975307405406937
10
-237.57017561056506
20
-98.975307405406866
10
-237.57017561056495
20
-90.975307405406852
0
LWPOLYLINE
5
150
100
AcDbEntity
8
0
100
AcDbPolyline
90
44
70
1
43
0.0
10
-192.07017561056671
20
-170.32530740540744
10
-192.07017561056662
20
-166.32530740540744
10
-201.07017561056662
20
-166.32530740540727
10
-201.07017561056668
20
-170.32530740540724
10
-210.07017561056668
20
-170.32530740540707
10
-210.07017561056659
20
-166.3253074054071
10
-219.07017561056662
20
-166.3253074054069
10
-219.07017561056671
20
-170.3253074054069
10
-228.07017561056668
20
-170.3253074054067
10
-228.07017561056659
20
-166.32530740540673
10
-233.57017561056662
20
-166.32530740540662
10
-233.57017561056648
20
-158.32530740540662
10
-237.57017561056645
20
-158.32530740540653
10
-237.57017561056631
20
-150.32530740540653
10
-233.57017561056634
20
-150.32530740540662
10
-233.57017561056614
20
-142.32530740540662
10
-237.57017561056614
20
-142.32530740540653
10
-237.570175610566
20
-134.32530740540653
10
-233.57017561056603
20
-134.32530740540665
10
-233.57017561056583
20
-126.9753074054066
10
-228.07017561056585
20
-126.97530740540671
10
-228.07017561056574
20
-122.97530740540672
10
-219.07017561056577
20
-122.97530740540691
10
-219.07017561056588
20
-126.97530740540691
10
-210.07017561056585
20
-126.97530740540708
10
-210.07017561056574
20
-122.97530740540708
10
-201.07017561056577
20
-122.97530740540725
10
-201.07017561056585
20
-126.97530740540726
10
-192.07017561056585
20
-126.97530740540743
10
-192.07017561056574
20
-122.97530740540743
10
-183.07017561056574
20
-122.97530740540762
10
-183.07017561056585
20
-126.97530740540762
10
-177.07017561056585
20
-126.97530740540772
10
-177.07017561056603
20
-134.32530740540776
10
-173.07017561056597
20
-134.32530740540781
10
-173.07017561056614
20
-142.32530740540778
10
-177.07017561056617
20
-142.32530740540773
10
-177.07017561056631
20
-150.32530740540773
10
-173.07017561056628
20
-150.32530740540781
10
-173.07017561056648
20
-158.32530740540781
10
-177.07017561056648
20
-158.32530740540773
10
-177.07017561056659
20
-166.32530740540773
10
-183.07017561056659
20
-166.32530740540761
10
-183.07017561056668
20
-170.32530740540761
0
LWPOLYLINE
5
151
100
AcDbEntity
8
0
100
AcDbPolyline
90
8
70
1
43
0.0
10
-188.2217415047219
20
-153.77211754279674
10
-209.34601566356707
20
-153.77211754279631
42
-0.41421356237309503
10
-210.84601566356702
20
-152.27211754279631
10
-210.84601566356702
20
-150.14149825297872
42
-0.41421356237309853
10
-209.34601566356696
20
-148.64149825297875
10
-188.22174150472179
20
-148.64149825297912
42
-0.41421356237309503
10
-186.72174150472182
20
-150.14149825297918
10
-186.72174150472188
20
-152.27211754279676
42
-0.41421356237309853
0
LWPOLYLINE
5
152
100
AcDbEntity
8
0
100
AcDbPolyline
90
40
70
1
43
0.0
10
-242.90716068633679
20
-194.35752893957161
10
-238.90716068633679
20
-194.35752893957161
10
-238.90716068633679
20
-186.35752893957161
10
-242.90716068633679
20
-186.35752893957161
10
-242.90716068633679
20
-178.35752893957164
10
-238.90716068633679
20
-178.35752893957164
10
-238.90716068633679
20
-170.35752893957164
10
-242.90716068633679
20
-170.35752893957164
10
-242.90716068633679
20
-162.35752893957164
10
-238.90716068633679
20
-162.35752893957164
10
-238.90716068633677
20
-148.19134889365404
10
-245.62405225724837
20
-147.60369702706646
10
-245.27542928625778
20
-143.61891823469949
10
-255.23737626717522
20
-142.74736080722289
10
-255.58599923816587
20
-146.73213959958989
10
-265.54794621908331
20
-145.86058217211328
10
-265.1993232480927
20
-141.87580337974629
10
-275.16127022901014
20
-141.00424595226971
10
-275.50989320000082
20
-144.98902474463671
10
-286.25716068633716
20
-144.04876067570154
10
-286.25716068633716
20
-154.35752893957161
10
-282.25716068633722
20
-154.35752893957161
10
-282.25716068633722
20
-162.35752893957164
10
-286.25716068633716
20
-162.35752893957164
10
-286.25716068633716
20
-170.35752893957164
10
-282.25716068633722
20
-170.35752893957164
10
-282.25716068633722
20
-178.35752893957164
10
-286.25716068633716
20
-178.35752893957164
10
-286.25716068633716
20
-186.35752893957161
10
-282.25716068633722
20
-186.35752893957161
10
-282.25716068633722
20
-198.35752893957161
10
-274.25716068633722
20
-198.35752893957161
10
-274.25716068633722
20
-194.35752893957158
10
-266.25716068633722
20
-194.35752893957161
10
-266.25716068633722
20
-198.35752893957164
10
-258.25716068633722
20
-198.35752893957161
10
-258.25716068633722
20
-194.35752893957158
10
-250.25716068633716
20
-194.35752893957161
10
-250.25716068633722
20
-198.35752893957164
10
-242.90716068633716
20
-198.35752893957164
0
LWPOLYLINE
5
153
100
AcDbEntity
8
0
100
AcDbPolyline
90
8
70
1
43
0.0
10
-268.3693858857917
20
-163.81812721228957
10
-262.971112430723
20
-163.81812721228957
42
-0.41421356237308815
10
-261.47111243072294
20
-165.31812721228957
10
-261.47111243072294
20
-170.99145329143258
42
-0.41421356237309503
10
-262.971112430723
20
-172.49145329143261
10
-268.3693858857917
20
-172.49145329143258
42
-0.41421356237309503
10
-269.8693858857917
20
-170.99145329143258
10
-269.8693858857917
20
-165.3181272122896
42
-0.41421356237309503
0
LWPOLYLINE
5
154
100
AcDbEntity
8
0
100
AcDbPolyline
90
40
70
1
43
0.0
10
-286.25716068633659
20
-170.35752893957164
10
-282.25716068633659
20
-170.35752893957169
10
-282.25716068633676
20
-178.35752893957167
10
-286.25716068633676
20
-178.35752893957161
10
-286.25716068633687
20
-186.35752893957161
10
-282.25716068633693
20
-186.35752893957169
10
-282.2571606863371
20
-194.35752893957169
10
-286.2571606863371
20
-194.35752893957161
10
-286.25716068633722
20
-202.35752893957164
10
-282.25716068633722
20
-202.35752893957169
10
-282.2571606863375
20
-216.52370898548929
10
-288.97405225724913
20
-217.11136085207673
10
-288.62542928625857
20
-221.09613964444372
10
-298.58737626717601
20
-221.9676970719201
10
-298.93599923816657
20
-217.98291827955313
10
-308.89794621908408
20
-218.85447570702951
10
-308.54932324809351
20
-222.83925449939653
10
-318.51127022901102
20
-223.71081192687288
10
-318.85989320000152
20
-219.72603313450588
10
-329.60716068633803
20
-220.66629720344085
10
-329.60716068633781
20
-210.35752893957078
10
-325.60716068633781
20
-210.35752893957084
10
-325.60716068633769
20
-202.35752893957084
10
-329.60716068633764
20
-202.35752893957078
10
-329.60716068633752
20
-194.35752893957076
10
-325.60716068633752
20
-194.35752893957084
10
-325.60716068633729
20
-186.35752893957084
10
-329.60716068633729
20
-186.35752893957076
10
-329.60716068633712
20
-178.35752893957076
10
-325.60716068633718
20
-178.35752893957081
10
-325.60716068633695
20
-166.35752893957087
10
-317.6071606863369
20
-166.35752893957101
10
-317.60716068633701
20
-170.35752893957101
10
-309.60716068633701
20
-170.35752893957118
10
-309.6071606863369
20
-166.35752893957115
10
-301.6071606863369
20
-166.35752893957132
10
-301.60716068633701
20
-170.3575289395713
10
-293.60716068633701
20
-170.35752893957147
10
-293.6071606863369
20
-166.35752893957147
10
-286.25716068633653
20
-166.35752893957161
0
LWPOLYLINE
5
155
100
AcDbEntity
8
0
100
AcDbPolyline
90
8
70
1
43
0.0
10
-293.36979592939173
20
-206.95703717170457
10
-311.45955365205862
20
-206.9570371717042
42
-0.41421356237309503
10
-312.95955365205856
20
-205.4570371717042
10
-312.95955365205833
20
-191.80552339374597
42
-0.41421356237309503
10
-311.45955365205828
20
-190.305523393746
10
-293.36979592939139
20
-190.30552339374637
42
-0.41421356237309503
10
-291.86979592939144
20
-191.8055233937464
10
-291.86979592939173
20
-205.4570371717046
42
-0.41421356237309503
0
LWPOLYLINE
5
156
100
AcDbEntity
8
0
100
AcDbPolyline
90
24
70
1
43
0.0
10
-293.61405776819208
20
-278.25122792331513
10
-293.26221133546107
20
-282.27285105197177
10
-303.22415831637852
20
-283.14440847944815
10
-303.57600474910959
20
-279.12278535079156
10
-313.53795173002703
20
-279.99434277826794
10
-313.18610529729602
20
-284.01596590692458
10
-346.77229948138682
20
-286.95437714901226
42
-0.41421356237309442
10
-348.39732514264591
20
-285.59081871599614
10
-353.75740332162587
20
-224.32484478335368
42
-0.41421356237309503
10
-352.39384488860969
20
-222.6998191220946
10
-318.85642497950874
20
-219.76567507614018
10
-318.51127022901136
20
-223.71081192687308
10
-308.54932324809386
20
-222.83925449939665
10
-308.89447799859124
20
-218.89411764866378
10
-298.9325310176738
20
-218.02256022118738
10
-298.58737626717641
20
-221.96769707192021
10
-288.62542928625891
20
-221.09613964444378
10
-288.97058403675629
20
-217.15100279371092
10
-279.67163192791213
20
-216.33744990151672
42
-0.41421356237308815
10
-278.0466062666531
20
-217.70100833453287
10
-272.68652808767308
20
-278.96698226717535
42
-0.41421356237308871
10
-274.05008652068932
20
-280.59200792843444
10
-283.30026435454357
20
-281.40129362449534
10
-283.65211078727464
20
-277.3796704958387
0
LWPOLYLINE
5
157
100
AcDbEntity
8
0
100
AcDbPolyline
90
12
70
1
43
0.0
10
-344.08876705383938
20
-277.56476156500207
10
-332.13443067673836
20
-276.51889265203039
42
-0.13689833259337233
10
-331.34188553284667
20
-276.66707716294991
10
-330.01311988071421
20
-277.32036258427269
42
0.13689833259338155
10
-329.22057473682241
20
-277.46854709519215
10
-296.34614969979458
20
-274.59240758452
42
0.13689833259337364
10
-295.59137706775749
20
-274.30885030933456
10
-294.39624017451013
20
-273.43475202744696
42
-0.13689833259341103
10
-293.64146754247304
20
-273.15119475226152
10
-281.68713116537202
20
-272.10532583928983
10
-285.1018931662245
20
-233.07441756805537
10
-347.50352905469197
20
-238.53385329376766
0
LWPOLYLINE
5
158
100
AcDbEntity
8
0
100
AcDbPolyline
90
36
70
1
43
0.0
10
-335.57017561056659
20
-166.32530740540761
10
-335.57017561056671
20
-170.32530740540764
10
-344.57017561056665
20
-170.32530740540744
10
-344.57017561056659
20
-166.32530740540744
10
-353.57017561056659
20
-166.32530740540727
10
-353.57017561056665
20
-170.32530740540727
10
-362.57017561056671
20
-170.32530740540707
10
-362.57017561056665
20
-166.3253074054071
10
-371.57017561056659
20
-166.3253074054069
10
-371.57017561056671
20
-170.32530740540693
10
-380.57017561056676
20
-170.32530740540676
10
-380.57017561056659
20
-166.32530740540673
10
-390.07017561056665
20
-166.32530740540656
10
-390.07017561056693
20
-178.32530740540653
10
-386.07017561056688
20
-178.32530740540662
10
-386.07017561056699
20
-186.32530740540662
10
-390.07017561056705
20
-186.32530740540656
10
-390.07017561056722
20
-194.32530740540656
10
-386.07017561056722
20
-194.32530740540665
10
-386.07017561056728
20
-202.32530740540665
10
-390.07017561056733
20
-202.32530740540653
10
-390.07017561056756
20
-210.32530740540659
10
-386.0701756105675
20
-210.32530740540665
10
-386.07017561056773
20
-219.92376210790968
10
-329.57017561056773
20
-219.92376210791079
10
-329.57017561056745
20
-210.32530740540773
10
-325.57017561056745
20
-210.32530740540778
10
-325.57017561056733
20
-202.32530740540781
10
-329.57017561056739
20
-202.32530740540773
10
-329.57017561056716
20
-194.32530740540773
10
-325.57017561056716
20
-194.32530740540784
10
-325.57017561056705
20
-186.32530740540784
10
-329.57017561056705
20
-186.32530740540773
10
-329.57017561056688
20
-178.32530740540773
10
-325.57017561056688
20
-178.32530740540784
10
-325.57017561056659
20
-166.32530740540784
0
LWPOLYLINE
5
159
100
AcDbEntity
8
0
100
AcDbPolyline
90
8
70
1
43
0.0
10
-370.48633091701458
20
-192.14626097157992
10
-370.98633091701458
20
-192.14626097157989
42
0.41421356237306733
10
-371.73633091701458
20
-192.89626097157989
10
-371.73633091701475
20
-201.39626097157986
42
0.41421356237303952
10
-370.9863309170147
20
-202.14626097157989
10
-370.48633091701475
20
-202.14626097157989
42
0.41421356237306733
10
-369.7363309170147
20
-201.39626097157998
10
-369.73633091701458
20
-192.89626097157992
42
0.41421356237301177
0
LWPOLYLINE
5
160
100
AcDbEntity
8
0
100
AcDbPolyline
90
8
70
1
43
0.0
10
-349.03633091701477
20
-206.29626097158035
10
-349.03633091701477
20
-205.79626097158035
42
0.41421356237301177
10
-349.78633091701482
20
-205.04626097158038
10
-358.28633091701482
20
-205.04626097158018
42
0.41421356237312279
10
-359.03633091701488
20
-205.79626097158012
10
-359.03633091701488
20
-206.29626097158012
42
0.41421356237310897
10
-358.28633091701477
20
-207.04626097158012
10
-349.78633091701482
20
-207.0462609715803
42
0.41421356237306733
0
LWPOLYLINE
5
161
100
AcDbEntity
8
0
100
AcDbPolyline
90
8
70
1
43
0.0
10
-332.53633091701482
20
-202.29626097158069
10
-332.53633091701465
20
-194.59626097158068
42
0.4142135623730257
10
-333.28633091701465
20
-193.8462609715807
10
-333.7863309170146
20
-193.84626097158065
42
0.41421356237306733
10
-334.53633091701465
20
-194.59626097158062
10
-334.53633091701477
20
-202.29626097158064
42
0.41421356237308116
10
-333.78633091701482
20
-203.04626097158064
10
-333.28633091701477
20
-203.04626097158064
42
0.41421356237306733
0
LWPOLYLINE
5
162
100
AcDbEntity
8
0
100
AcDbPolyline
90
44
70
1
43
0.0
10
-344.57017561056665
20
-170.32530740540744
10
-344.57017561056659
20
-166.32530740540744
10
-353.57017561056665
20
-166.32530740540727
10
-353.57017561056671
20
-170.32530740540724
10
-362.57017561056671
20
-170.32530740540707
10
-362.57017561056665
20
-166.3253074054071
10
-371.57017561056659
20
-166.3253074054069
10
-371.57017561056671
20
-170.3253074054069
10
-380.57017561056671
20
-170.3253074054067
10
-380.57017561056671
20
-166.32530740540673
10
-386.07017561056665
20
-166.32530740540662
10
-386.07017561056642
20
-158.32530740540662
10
-390.07017561056648
20
-158.32530740540653
10
-390.07017561056637
20
-150.32530740540653
10
-386.07017561056631
20
-150.32530740540662
10
-386.07017561056614
20
-142.32530740540662
10
-390.0701756105662
20
-142.32530740540653
10
-390.07017561056603
20
-134.32530740540653
10
-386.07017561056591
20
-134.32530740540665
10
-386.07017561056585
20
-126.9753074054066
10
-380.57017561056591
20
-126.97530740540671
10
-380.5701756105658
20
-122.97530740540672
10
-371.5701756105658
20
-122.97530740540691
10
-371.57017561056585
20
-126.97530740540691
10
-362.57017561056585
20
-126.97530740540708
10
-362.5701756105658
20
-122.97530740540708
10
-353.5701756105658
20
-122.97530740540725
10
-353.57017561056585
20
-126.97530740540726
10
-344.57017561056591
20
-126.97530740540743
10
-344.5701756105658
20
-122.97530740540743
10
-335.5701756105658
20
-122.97530740540762
10
-335.57017561056591
20
-126.97530740540762
10
-329.57017561056591
20
-126.97530740540772
10
-329.57017561056603
20
-134.32530740540776
10
-325.57017561056597
20
-134.32530740540781
10
-325.5701756105662
20
-142.32530740540778
10
-329.57017561056608
20
-142.32530740540773
10
-329.57017561056631
20
-150.32530740540773
10
-325.57017561056631
20
-150.32530740540781
10
-325.57017561056648
20
-158.32530740540781
10
-329.57017561056648
20
-158.32530740540773
10
-329.57017561056665
20
-166.32530740540773
10
-335.57017561056659
20
-166.32530740540761
10
-335.57017561056671
20
-170.32530740540761
0
LWPOLYLINE
5
163
100
AcDbEntity
8
0
100
AcDbPolyline
90
8
70
1
43
0.0
10
-340.72174150472188
20
-153.77211754279674
10
-361.84601566356707
20
-153.77211754279639
42
-0.41421356237310197
10
-363.34601566356707
20
-152.27211754279631
10
-363.34601566356696
20
-150.14149825297872
42
-0.41421356237309159
10
-361.84601566356696
20
-148.64149825297875
10
-340.72174150472176
20
-148.64149825297918
42
-0.41421356237308815
10
-339.22174150472182
20
-150.14149825297918
10
-339.22174150472188
20
-152.27211754279676
42
-0.41421356237309159
0
LWPOLYLINE
5
164
100
AcDbEntity
8
0
100
AcDbPolyline
90
36
70
1
43
0.0
10
-386.070175610565
20
-90.975307405406923
10
-386.07017561056477
20
-79.84446359407869
10
-329.57017561056477
20
-79.844463594079812
10
-329.57017561056495
20
-90.975307405408046
10
-325.570175610565
20
-90.975307405408131
10
-325.57017561056512
20
-98.975307405408131
10
-329.57017561056512
20
-98.975307405408046
10
-329.57017561056523
20
-106.97530740540806
10
-325.57017561056534
20
-106.97530740540813
10
-325.57017561056546
20
-114.97530740540813
10
-329.5701756105654
20
-114.97530740540805
10
-329.57017561056557
20
-122.97530740540806
10
-325.57017561056563
20
-122.97530740540815
10
-325.57017561056568
20
-126.97530740540813
10
-335.57017561056563
20
-126.97530740540792
10
-335.57017561056563
20
-122.97530740540792
10
-344.57017561056551
20
-122.97530740540778
10
-344.57017561056568
20
-126.97530740540773
10
-353.57017561056568
20
-126.97530740540756
10
-353.57017561056557
20
-122.97530740540756
10
-362.57017561056557
20
-122.97530740540742
10
-362.57017561056563
20
-126.97530740540739
10
-371.57017561056563
20
-126.97530740540721
10
-371.57017561056557
20
-122.97530740540722
10
-380.57017561056557
20
-122.97530740540707
10
-380.57017561056568
20
-126.97530740540705
10
-390.07017561056568
20
-126.97530740540685
10
-390.07017561056557
20
-122.97530740540685
10
-386.07017561056557
20
-122.97530740540694
10
-386.07017561056546
20
-114.97530740540695
10
-390.07017561056546
20
-114.97530740540685
10
-390.07017561056529
20
-106.97530740540685
10
-386.07017561056523
20
-106.97530740540694
10
-386.07017561056517
20
-98.975307405406937
10
-390.07017561056506
20
-98.975307405406866
10
-390.07017561056495
20
-90.975307405406852
0
LWPOLYLINE
5
165
100
AcDbEntity
8
0
100
AcDbPolyline
90
36
70
1
43
0.0
10
-269.07017561056557
20
-122.97530740540799
10
-269.07017561056557
20
-134.10615121673624
10
-325.57017561056563
20
-134.10615121673621
10
-325.57017561056563
20
-122.97530740540796
10
-329.57017561056557
20
-122.97530740540796
10
-329.57017561056557
20
-114.97530740540797
10
-325.57017561056563
20
-114.97530740540797
10
-325.57017561056563
20
-106.97530740540797
10
-329.57017561056557
20
-106.97530740540797
10
-329.57017561056557
20
-98.975307405407989
10
-325.57017561056563
20
-98.975307405407989
10
-325.57017561056563
20
-90.975307405407975
10
-329.57017561056557
20
-90.975307405407975
10
-329.57017561056557
20
-86.975307405407989
10
-319.57017561056557
20
-86.975307405407989
10
-319.57017561056557
20
-90.975307405407989
10
-310.57017561056557
20
-90.975307405407975
10
-310.57017561056563
20
-86.975307405407989
10
-301.57017561056563
20
-86.975307405407989
10
-301.57017561056557
20
-90.975307405407989
10
-292.57017561056563
20
-90.975307405407975
10
-292.57017561056563
20
-86.975307405407989
10
-283.57017561056563
20
-86.975307405407989
10
-283.57017561056557
20
-90.975307405407975
10
-274.57017561056557
20
-90.975307405407975
10
-274.57017561056557
20
-86.975307405407989
10
-265.07017561056563
20
-86.975307405407989
10
-265.07017561056563
20
-90.975307405407989
10
-269.07017561056557
20
-90.975307405407975
10
-269.07017561056557
20
-98.97530740540796
10
-265.07017561056563
20
-98.975307405407989
10
-265.07017561056563
20
-106.97530740540799
10
-269.07017561056557
20
-106.97530740540797
10
-269.07017561056557
20
-114.97530740540797
10
-265.07017561056563
20
-114.97530740540797
10
-265.07017561056563
20
-122.97530740540799
0
LWPOLYLINE
5
166
100
AcDbEntity
8
0
100
AcDbPolyline
90
44
70
1
43
0.0
10
-310.57017561056557
20
-43.625307405408151
10
-310.57017561056557
20
-47.625307405408151
10
-301.57017561056557
20
-47.625307405408151
10
-301.57017561056557
20
-43.625307405408151
10
-292.57017561056557
20
-43.625307405408151
10
-292.57017561056557
20
-47.625307405408151
10
-283.57017561056557
20
-47.625307405408151
10
-283.57017561056557
20
-43.625307405408151
10
-274.57017561056557
20
-43.625307405408151
10
-274.57017561056557
20
-47.625307405408151
10
-269.07017561056557
20
-47.625307405408151
10
-269.07017561056557
20
-55.625307405408151
10
-265.07017561056557
20
-55.625307405408151
10
-265.07017561056557
20
-63.625307405408151
10
-269.07017561056557
20
-63.625307405408151
10
-269.07017561056557
20
-71.625307405408151
10
-265.07017561056557
20
-71.625307405408151
10
-265.07017561056557
20
-79.625307405408151
10
-269.07017561056557
20
-79.625307405408151
10
-269.07017561056557
20
-86.975307405408159
10
-274.57017561056557
20
-86.975307405408159
10
-274.57017561056557
20
-90.975307405408159
10
-283.57017561056557
20
-90.975307405408159
10
-283.57017561056557
20
-86.975307405408159
10
-292.57017561056557
20
-86.975307405408159
10
-292.57017561056557
20
-90.975307405408159
10
-301.57017561056557
20
-90.975307405408159
10
-301.57017561056557
20
-86.975307405408159
10
-310.57017561056557
20
-86.975307405408159
10
-310.57017561056557
20
-90.975307405408159
10
-319.57017561056557
20
-90.975307405408159
10
-319.57017561056557
20
-86.975307405408159
10
-325.57017561056557
20
-86.975307405408159
10
-325.57017561056557
20
-79.625307405408151
10
-329.57017561056557
20
-79.625307405408151
10
-329.57017561056557
20
-71.625307405408151
10
-325.57017561056563
20
-71.625307405408151
10
-325.57017561056557
20
-63.625307405408151
10
-329.57017561056557
20
-63.625307405408151
10
-329.57017561056557
20
-55.625307405408151
10
-325.57017561056563
20
-55.625307405408151
10
-325.57017561056557
20
-47.625307405408151
10
-319.57017561056557
20
-47.625307405408151
10
-319.57017561056557
20
-43.625307405408151
0
LWPOLYLINE
5
167
100
AcDbEntity
8
0
100
AcDbPolyline
90
8
70
1
43
0.0
10
-314.41860971641006
20
-60.178497268018923
10
-293.29433555756486
20
-60.178497268018944
42
-0.41421356237309503
10
-291.79433555756486
20
-61.67849726801893
10
-291.79433555756486
20
-63.809116557836518
42
-0.41421356237309503
10
-293.29433555756486
20
-65.309116557836518
10
-314.41860971641006
20
-65.309116557836504
42
-0.41421356237309503
10
-315.91860971641006
20
-63.809116557836518
10
-315.91860971641006
20
-61.67849726801893
42
-0.41421356237309503
0
LWPOLYLINE
5
168
100
AcDbEntity
8
0
100
AcDbPolyline
90
36
70
1
43
0.0
10
-319.57017561056557
20
-47.625307405408144
10
-319.57017561056557
20
-43.625307405408137
10
-310.57017561056557
20
-43.625307405408151
10
-310.57017561056557
20
-47.625307405408144
10
-301.57017561056557
20
-47.625307405408144
10
-301.57017561056557
20
-43.625307405408137
10
-292.57017561056557
20
-43.625307405408151
10
-292.57017561056557
20
-47.625307405408144
10
-283.57017561056557
20
-47.625307405408144
10
-283.57017561056557
20
-43.625307405408151
10
-274.57017561056557
20
-43.625307405408151
10
-274.57017561056557
20
-47.625307405408144
10
-265.07017561056557
20
-47.625307405408144
10
-265.07017561056557
20
-35.625307405408151
10
-269.07017561056557
20
-35.625307405408151
10
-269.07017561056557
20
-27.625307405408151
10
-265.07017561056557
20
-27.625307405408151
10
-265.07017561056557
20
-19.625307405408151
10
-269.07017561056557
20
-19.625307405408151
10
-269.07017561056557
20
-11.625307405408151
10
-265.07017561056557
20
-11.625307405408151
10
-265.07017561056557
20
-3.6253074054081513
10
-269.07017561056557
20
-3.6253074054081513
10
-269.07017561056557
20
5.97314729709489
10
-325.57017561056557
20
5.97314729709489
10
-325.57017561056557
20
-3.6253074054081513
10
-329.57017561056557
20
-3.6253074054081513
10
-329.57017561056557
20
-11.625307405408151
10
-325.57017561056557
20
-11.625307405408151
10
-325.57017561056557
20
-19.625307405408151
10
-329.57017561056557
20
-19.625307405408151
10
-329.57017561056557
20
-27.625307405408151
10
-325.57017561056563
20
-27.625307405408151
10
-325.57017561056557
20
-35.625307405408151
10
-329.57017561056557
20
-35.625307405408151
10
-329.57017561056551
20
-47.625307405408144
0
LWPOLYLINE
5
169
100
AcDbEntity
8
0
100
AcDbPolyline
90
8
70
1
43
0.0
10
-284.65402030411815
20
-21.804353839235162
10
-284.15402030411815
20
-21.804353839235162
42
0.41421356237309503
10
-283.40402030411815
20
-21.054353839235162
10
-283.40402030411815
20
-12.554353839235164
42
0.41421356237306123
10
-284.15402030411815
20
-11.804353839235151
10
-284.65402030411809
20
-11.804353839235162
42
0.41421356237307599
10
-285.40402030411815
20
-12.554353839235162
10
-285.40402030411815
20
-21.054353839235162
42
0.41421356237306034
0
LWPOLYLINE
5
170
100
AcDbEntity
8
0
100
AcDbPolyline
90
8
70
1
43
0.0
10
-306.10402030411814
20
-7.6543538392351635
10
-306.10402030411814
20
-8.1543538392351635
42
0.4142135623730625
10
-305.35402030411814
20
-8.9043538392351813
10
-296.85402030411814
20
-8.9043538392351618
42
0.41421356237307644
10
-296.10402030411808
20
-8.1543538392351618
10
-296.10402030411814
20
-7.6543538392351618
42
0.4142135623730625
10
-296.85402030411814
20
-6.9043538392351458
10
-305.35402030411814
20
-6.9043538392351635
42
0.4142135623730625
0
LWPOLYLINE
5
171
100
AcDbEntity
8
0
100
AcDbPolyline
90
8
70
1
43
0.0
10
-322.60402030411808
20
-11.65435383923516
10
-322.60402030411808
20
-19.354353839235163
42
0.41421356237309076
10
-321.85402030411814
20
-20.104353839235181
10
-321.35402030411819
20
-20.104353839235163
42
0.41421356237306295
10
-320.60402030411808
20
-19.354353839235163
10
-320.60402030411814
20
-11.65435383923516
42
0.41421356237303353
10
-321.35402030411808
20
-10.904353839235148
10
-321.85402030411814
20
-10.904353839235162
42
0.41421356237308898
0
LWPOLYLINE
5
172
100
AcDbEntity
8
0
100
AcDbPolyline
90
40
70
1
43
0.0
10
-368.88319053479563
20
-43.59308587124508
10
-372.88319053479563
20
-43.59308587124508
10
-372.88319053479563
20
-35.59308587124508
10
-368.88319053479563
20
-35.59308587124508
10
-368.88319053479563
20
-27.593085871245076
10
-372.88319053479563
20
-27.59308587124508
10
-372.88319053479563
20
-19.593085871245076
10
-368.88319053479563
20
-19.593085871245076
10
-368.88319053479563
20
-11.593085871245075
10
-372.88319053479563
20
-11.593085871245073
10
-372.88319053479569
20
2.5730941746725078
10
-366.16629896388406
20
3.1607460412601016
10
-366.51492193487468
20
7.1455248336270643
10
-356.55297495395723
20
8.0170822611036492
10
-356.20435198296661
20
4.0323034687366777
10
-346.24240500204911
20
4.9038608962132493
10
-346.59102797303979
20
8.8886396885802412
10
-336.62908099212234
20
9.7601971160568155
10
-336.28045802113172
20
5.7754183236898236
10
-325.53319053479527
20
6.7156823926250038
10
-325.53319053479527
20
-3.5930858712450759
10
-329.53319053479527
20
-3.5930858712450764
10
-329.53319053479527
20
-11.593085871245073
10
-325.53319053479527
20
-11.593085871245075
10
-325.53319053479527
20
-19.593085871245076
10
-329.53319053479527
20
-19.593085871245073
10
-329.53319053479527
20
-27.59308587124508
10
-325.53319053479527
20
-27.59308587124508
10
-325.53319053479527
20
-35.59308587124508
10
-329.53319053479527
20
-35.59308587124508
10
-329.53319053479527
20
-47.593085871245073
10
-337.53319053479521
20
-47.593085871245073
10
-337.53319053479521
20
-43.59308587124508
10
-345.53319053479527
20
-43.59308587124508
10
-345.53319053479521
20
-47.593085871245073
10
-353.53319053479527
20
-47.593085871245073
10
-353.53319053479527
20
-43.59308587124508
10
-361.53319053479521
20
-43.59308587124508
10
-361.53319053479521
20
-47.593085871245073
10
-368.88319053479563
20
-47.593085871245066
0
LWPOLYLINE
5
173
100
AcDbEntity
8
0
100
AcDbPolyline
90
8
70
1
43
0.0
10
-361.77055529174129
20
-6.9935776391119848
10
-343.68079756907434
20
-6.9935776391120017
42
-0.41421356237309503
10
-342.18079756907434
20
-8.4935776391119884
10
-342.18079756907434
20
-22.145091417070184
42
-0.41421356237309503
10
-343.68079756907434
20
-23.645091417070176
10
-361.77055529174129
20
-23.645091417070169
42
-0.41421356237309681
10
-363.27055529174123
20
-22.145091417070173
10
-363.27055529174123
20
-8.4935776391119848
42
-0.41421356237309503
0
LWPOLYLINE
5
174
100
AcDbEntity
8
0
100
AcDbPolyline
90
24
70
1
43
0.0
10
-361.52629345294258
20
64.300613112498411
10
-361.87813988567365
20
68.322236241155025
10
-351.9161929047562
20
69.193793668631642
10
-351.56434647202508
20
65.172170539975028
10
-341.60239949110769
20
66.043727967451659
10
-341.9542459238387
20
70.065351096108259
10
-308.36805173974801
20
73.003762338196637
42
-0.41421356237309159
10
-306.74302607848892
20
71.640203905180499
10
-301.38294789950771
20
10.374229972538178
42
-0.41421356237309914
10
-302.74650633252384
20
8.7492043112790689
10
-336.28392624162478
20
5.8150602653239991
10
-336.62908099212223
20
9.7601971160568528
10
-346.59102797303979
20
8.8886396885802377
10
-346.24587322254229
20
4.9435028378473778
10
-356.20782020345973
20
4.0719454103707662
10
-356.55297495395712
20
8.017082261103619
10
-366.51492193487462
20
7.1455248336270039
10
-366.16976718437718
20
3.2003879828941395
10
-375.46871929322128
20
2.3868350906997655
42
-0.41421356237309054
10
-377.09374495448037
20
3.7503935237158972
10
-382.45382313346158
20
65.016367456358225
42
-0.4142135623730987
10
-381.0902647004454
20
66.641393117617341
10
-371.84008686659115
20
67.450678813678408
10
-371.48824043386003
20
63.429055685021794
0
LWPOLYLINE
5
175
100
AcDbEntity
8
0
100
AcDbPolyline
90
12
70
1
43
0.0
10
-311.05158416729523
20
63.614146754186407
10
-323.00592054439625
20
62.568277841214467
42
-0.13689833259340919
10
-323.79846568828805
20
62.716462352134002
10
-325.12723134042051
20
63.369747773456673
42
0.13689833259337222
10
-325.91977648431219
20
63.517932284376158
10
-358.79420152133997
20
60.641792773703344
42
0.13689833259337381
10
-359.54897415337706
20
60.358235498517928
10
-360.74411104662454
20
59.484137216630288
42
-0.13689833259338591
10
-361.49888367866151
20
59.20057994144485
10
-373.45322005576259
20
58.15471102847291
10
-370.03845805490926
20
19.123802757238519
10
-307.63682216644196
20
24.583238482952019
0
LWPOLYLINE
5
176
100
AcDbEntity
8
0
100
AcDbPolyline
90
40
70
1
43
0.0
10
-412.23319053479599
20
-19.59308587124422
10
-416.23319053479599
20
-19.593085871244142
10
-416.23319053479611
20
-27.593085871244138
10
-412.23319053479611
20
-27.59308587124422
10
-412.23319053479628
20
-35.593085871244213
10
-416.23319053479628
20
-35.593085871244135
10
-416.23319053479645
20
-43.593085871244135
10
-412.23319053479651
20
-43.593085871244213
10
-412.23319053479662
20
-51.593085871244213
10
-416.23319053479662
20
-51.593085871244135
10
-416.2331905347969
20
-65.759265917161713
10
-409.51629896388533
20
-66.346917783749447
10
-409.86492193487601
20
-70.3316965761164
10
-399.90297495395851
20
-71.203254003593173
10
-399.55435198296783
20
-67.21847521122622
10
-389.59240500205044
20
-68.090032638702979
10
-389.94102797304117
20
-72.074811431069975
10
-379.97908099212361
20
-72.946368858546734
10
-379.63045802113294
20
-68.961590066179753
10
-368.88319053479654
20
-69.901854135115144
10
-368.88319053479631
20
-59.593085871245073
10
-372.88319053479643
20
-59.593085871244995
10
-372.88319053479626
20
-51.593085871244995
10
-368.8831905347962
20
-51.593085871245073
10
-368.88319053479597
20
-43.59308587124508
10
-372.88319053479603
20
-43.593085871244995
10
-372.88319053479592
20
-35.593085871244995
10
-368.88319053479586
20
-35.593085871245073
10
-368.88319053479569
20
-27.593085871245076
10
-372.88319053479574
20
-27.593085871244995
10
-372.88319053479546
20
-15.593085871245007
10
-380.88319053479546
20
-15.593085871244847
10
-380.88319053479552
20
-19.59308587124486
10
-388.88319053479557
20
-19.593085871244689
10
-388.88319053479552
20
-15.593085871244687
10
-396.88319053479546
20
-15.593085871244527
10
-396.88319053479552
20
-19.593085871244533
10
-404.88319053479557
20
-19.593085871244369
10
-404.88319053479552
20
-15.593085871244368
10
-412.23319053479548
20
-15.593085871244226
0
LWPOLYLINE
5
177
100
AcDbEntity
8
0
100
AcDbPolyline
90
8
70
1
43
0.0
10
-386.77096533534166
20
-50.132487598526758
10
-392.1692387904103
20
-50.132487598526637
42
-0.41421356237310025
10
-393.6692387904103
20
-48.632487598526623
10
-393.66923879041025
20
-42.959161519383613
42
-0.41421356237310375
10
-392.16923879041019
20
-41.459161519383649
10
-386.77096533534149
20
-41.459161519383763
42
-0.41421356237308637
10
-385.27096533534154
20
-42.959161519383777
10
-385.27096533534171
20
-48.632487598526779
42
-0.41421356237308982
0
LWPOLYLINE
5
178
100
AcDbEntity
8
0
100
AcDbPolyline
90
36
70
1
43
0.0
10
-472.07017561056557
20
-47.625307405408144
10
-472.07017561056557
20
-43.625307405408137
10
-463.07017561056563
20
-43.625307405408151
10
-463.07017561056557
20
-47.625307405408144
10
-454.07017561056557
20
-47.625307405408144
10
-454.07017561056557
20
-43.625307405408137
10
-445.07017561056557
20
-43.625307405408151
10
-445.07017561056557
20
-47.625307405408144
10
-436.07017561056557
20
-47.625307405408144
10
-436.07017561056557
20
-43.625307405408151
10
-427.07017561056557
20
-43.625307405408151
10
-427.07017561056557
20
-47.625307405408144
10
-417.57017561056557
20
-47.625307405408144
10
-417.57017561056551
20
-35.625307405408151
10
-421.57017561056557
20
-35.625307405408151
10
-421.57017561056557
20
-27.625307405408151
10
-417.57017561056557
20
-27.625307405408151
10
-417.57017561056557
20
-19.625307405408151
10
-421.57017561056557
20
-19.625307405408151
10
-421.57017561056563
20
-11.625307405408151
10
-417.57017561056557
20
-11.625307405408151
10
-417.57017561056557
20
-3.6253074054081513
10
-421.57017561056563
20
-3.6253074054081513
10
-421.57017561056557
20
5.97314729709489
10
-478.07017561056557
20
5.97314729709489
10
-478.07017561056557
20
-3.6253074054081513
10
-482.07017561056557
20
-3.6253074054081513
10
-482.07017561056557
20
-11.625307405408151
10
-478.07017561056557
20
-11.625307405408151
10
-478.07017561056557
20
-19.625307405408151
10
-482.07017561056557
20
-19.625307405408151
10
-482.07017561056557
20
-27.625307405408151
10
-478.07017561056563
20
-27.625307405408151
10
-478.07017561056557
20
-35.625307405408151
10
-482.07017561056557
20
-35.625307405408151
10
-482.07017561056557
20
-47.625307405408144
0
LWPOLYLINE
5
179
100
AcDbEntity
8
0
100
AcDbPolyline
90
8
70
1
43
0.0
10
-437.15402030411809
20
-21.804353839235162
10
-436.65402030411815
20
-21.804353839235162
42
0.41421356237303258
10
-435.90402030411809
20
-21.054353839235162
10
-435.90402030411809
20
-12.554353839235164
42
0.41421356237303353
10
-436.65402030411815
20
-11.804353839235151
10
-437.15402030411815
20
-11.804353839235162
42
0.41421356237300661
10
-437.90402030411815
20
-12.554353839235162
10
-437.90402030411815
20
-21.054353839235162
42
0.41421356237303258
0
LWPOLYLINE
5
180
100
AcDbEntity
8
0
100
AcDbPolyline
90
8
70
1
43
0.0
10
-458.60402030411814
20
-7.6543538392351635
10
-458.60402030411814
20
-8.1543538392351635
42
0.41421356237309026
10
-457.85402030411808
20
-8.9043538392351813
10
-449.35402030411814
20
-8.9043538392351618
42
0.41421356237309026
10
-448.60402030411814
20
-8.1543538392351618
10
-448.60402030411814
20
-7.6543538392351618
42
0.41421356237309026
10
-449.35402030411814
20
-6.9043538392351458
10
-457.85402030411819
20
-6.9043538392351635
42
0.4142135623730625
0
LWPOLYLINE
5
181
100
AcDbEntity
8
0
100
AcDbPolyline
90
8
70
1
43
0.0
10
-475.10402030411808
20
-11.65435383923516
10
-475.10402030411808
20
-19.354353839235163
42
0.41421356237309076
10
-474.35402030411814
20
-20.104353839235181
10
-473.85402030411819
20
-20.104353839235163
42
0.41421356237306295
10
-473.10402030411808
20
-19.354353839235163
10
-473.10402030411814
20
-11.65435383923516
42
0.41421356237303353
10
-473.85402030411808
20
-10.904353839235148
10
-474.35402030411814
20
-10.904353839235162
42
0.41421356237308898
0
LWPOLYLINE
5
182
100
AcDbEntity
8
0
100
AcDbPolyline
90
24
70
1
43
0.0
10
-514.02629345294258
20
64.300613112498411
10
-514.37813988567359
20
68.322236241155025
10
-504.4161929047562
20
69.193793668631642
10
-504.06434647202508
20
65.172170539975028
10
-494.10239949110769
20
66.043727967451659
10
-494.4542459238387
20
70.065351096108259
10
-460.86805173974795
20
73.003762338196651
42
-0.41421356237307777
10
-459.24302607848892
20
71.640203905180499
10
-453.88294789950771
20
10.374229972538176
42
-0.41421356237309853
10
-455.24650633252384
20
8.7492043112790689
10
-488.78392624162478
20
5.8150602653239991
10
-489.12908099212223
20
9.7601971160568528
10
-499.09102797303979
20
8.8886396885802377
10
-498.74587322254229
20
4.9435028378473778
10
-508.70782020345973
20
4.0719454103707662
10
-509.05297495395712
20
8.017082261103619
10
-519.01492193487468
20
7.1455248336270039
10
-518.66976718437718
20
3.2003879828941395
10
-527.96871929322128
20
2.3868350906997655
42
-0.41421356237309054
10
-529.59374495448037
20
3.7503935237158972
10
-534.95382313346158
20
65.016367456358225
42
-0.4142135623730987
10
-533.59026470044546
20
66.641393117617341
10
-524.34008686659115
20
67.450678813678408
10
-523.98824043386003
20
63.429055685021794
0
LWPOLYLINE
5
183
100
AcDbEntity
8
0
100
AcDbPolyline
90
12
70
1
43
0.0
10
-463.55158416729523
20
63.614146754186407
10
-475.50592054439625
20
62.568277841214467
42
-0.13689833259340919
10
-476.29846568828805
20
62.716462352134002
10
-477.62723134042051
20
63.369747773456673
42
0.13689833259337222
10
-478.41977648431219
20
63.517932284376158
10
-511.29420152133997
20
60.641792773703344
42
0.13689833259337381
10
-512.048974153377
20
60.358235498517928
10
-513.24411104662454
20
59.484137216630288
42
-0.13689833259338591
10
-513.99888367866151
20
59.20057994144485
10
-525.95322005576259
20
58.15471102847291
10
-522.53845805490926
20
19.123802757238519
10
-460.1368221664419
20
24.583238482952019
0
LWPOLYLINE
5
184
100
AcDbEntity
8
0
100
AcDbPolyline
90
40
70
1
43
0.0
10
-521.38319053479563
20
-43.59308587124508
10
-525.38319053479563
20
-43.59308587124508
10
-525.38319053479563
20
-35.59308587124508
10
-521.38319053479563
20
-35.59308587124508
10
-521.38319053479563
20
-27.593085871245076
10
-525.38319053479563
20
-27.59308587124508
10
-525.38319053479563
20
-19.593085871245076
10
-521.38319053479563
20
-19.593085871245076
10
-521.38319053479563
20
-11.593085871245075
10
-525.38319053479563
20
-11.593085871245073
10
-525.38319053479563
20
2.5730941746725078
10
-518.66629896388395
20
3.1607460412601016
10
-519.01492193487468
20
7.1455248336270643
10
-509.05297495395723
20
8.0170822611036492
10
-508.70435198296656
20
4.0323034687366777
10
-498.74240500204905
20
4.9038608962132493
10
-499.09102797303973
20
8.8886396885802412
10
-489.12908099212223
20
9.7601971160568155
10
-488.78045802113161
20
5.7754183236898236
10
-478.03319053479521
20
6.7156823926250038
10
-478.03319053479521
20
-3.5930858712450759
10
-482.03319053479515
20
-3.5930858712450764
10
-482.03319053479515
20
-11.593085871245073
10
-478.03319053479521
20
-11.593085871245075
10
-478.03319053479521
20
-19.593085871245076
10
-482.03319053479515
20
-19.593085871245073
10
-482.03319053479515
20
-27.59308587124508
10
-478.03319053479521
20
-27.59308587124508
10
-478.03319053479521
20
-35.59308587124508
10
-482.03319053479515
20
-35.59308587124508
10
-482.03319053479515
20
-47.593085871245073
10
-490.03319053479515
20
-47.593085871245073
10
-490.03319053479515
20
-43.59308587124508
10
-498.03319053479521
20
-43.59308587124508
10
-498.03319053479515
20
-47.593085871245073
10
-506.03319053479515
20
-47.593085871245073
10
-506.03319053479515
20
-43.59308587124508
10
-514.03319053479527
20
-43.59308587124508
10
-514.03319053479527
20
-47.593085871245073
10
-521.38319053479563
20
-47.593085871245066
0
LWPOLYLINE
5
185
100
AcDbEntity
8
0
100
AcDbPolyline
90
8
70
1
43
0.0
10
-514.27055529174118
20
-6.9935776391119848
10
-496.18079756907429
20
-6.9935776391119306
42
-0.41421356237308116
10
-494.68079756907429
20
-8.4935776391119884
10
-494.68079756907434
20
-22.145091417070184
42
-0.41421356237309503
10
-496.18079756907434
20
-23.645091417070176
10
-514.27055529174118
20
-23.645091417070169
42
-0.41421356237309681
10
-515.77055529174118
20
-22.145091417070173
10
-515.77055529174118
20
-8.4935776391119848
42
-0.41421356237309503
0
LWPOLYLINE
5
186
100
AcDbEntity
8
0
100
AcDbPolyline
90
44
70
1
43
0.0
10
-463.07017561056557
20
-43.625307405408151
10
-463.07017561056557
20
-47.625307405408151
10
-454.07017561056557
20
-47.625307405408151
10
-454.07017561056557
20
-43.625307405408151
10
-445.07017561056557
20
-43.625307405408151
10
-445.07017561056557
20
-47.625307405408151
10
-436.07017561056557
20
-47.625307405408151
10
-436.07017561056557
20
-43.625307405408151
10
-427.07017561056557
20
-43.625307405408151
10
-427.07017561056551
20
-47.625307405408151
10
-421.57017561056557
20
-47.625307405408151
10
-421.57017561056563
20
-55.625307405408151
10
-417.57017561056557
20
-55.625307405408151
10
-417.57017561056557
20
-63.625307405408151
10
-421.57017561056563
20
-63.625307405408151
10
-421.57017561056563
20
-71.625307405408151
10
-417.57017561056557
20
-71.625307405408151
10
-417.57017561056557
20
-79.625307405408151
10
-421.57017561056563
20
-79.625307405408151
10
-421.57017561056557
20
-86.975307405408159
10
-427.07017561056551
20
-86.975307405408159
10
-427.07017561056557
20
-90.975307405408159
10
-436.07017561056557
20
-90.975307405408159
10
-436.07017561056557
20
-86.975307405408159
10
-445.07017561056557
20
-86.975307405408159
10
-445.07017561056557
20
-90.975307405408159
10
-454.07017561056557
20
-90.975307405408159
10
-454.07017561056557
20
-86.975307405408159
10
-463.07017561056557
20
-86.975307405408159
10
-463.07017561056557
20
-90.975307405408159
10
-472.07017561056557
20
-90.975307405408159
10
-472.07017561056557
20
-86.975307405408159
10
-478.07017561056557
20
-86.975307405408159
10
-478.07017561056557
20
-79.625307405408151
10
-482.07017561056557
20
-79.625307405408151
10
-482.07017561056557
20
-71.625307405408151
10
-478.07017561056563
20
-71.625307405408151
10
-478.07017561056557
20
-63.625307405408151
10
-482.07017561056557
20
-63.625307405408151
10
-482.07017561056557
20
-55.625307405408151
10
-478.07017561056563
20
-55.625307405408151
10
-478.07017561056557
20
-47.625307405408151
10
-472.07017561056557
20
-47.625307405408151
10
-472.07017561056557
20
-43.625307405408151
0
LWPOLYLINE
5
187
100
AcDbEntity
8
0
100
AcDbPolyline
90
8
70
1
43
0.0
10
-466.91860971641006
20
-60.178497268018923
10
-445.79433555756486
20
-60.178497268018944
42
-0.41421356237309503
10
-444.29433555756486
20
-61.67849726801893
10
-444.29433555756486
20
-63.809116557836518
42
-0.41421356237309503
10
-445.79433555756486
20
-65.309116557836518
10
-466.91860971641006
20
-65.309116557836504
42
-0.41421356237309503
10
-468.41860971641006
20
-63.809116557836518
10
-468.41860971641006
20
-61.67849726801893
42
-0.41421356237309503
0
LWPOLYLINE
5
188
100
AcDbEntity
8
0
100
AcDbPolyline
90
36
70
1
43
0.0
10
-421.57017561056557
20
-122.97530740540799
10
-421.57017561056557
20
-134.10615121673624
10
-478.07017561056557
20
-134.10615121673621
10
-478.07017561056557
20
-122.97530740540796
10
-482.07017561056551
20
-122.97530740540796
10
-482.07017561056551
20
-114.97530740540797
10
-478.07017561056563
20
-114.97530740540797
10
-478.07017561056557
20
-106.97530740540797
10
-482.07017561056551
20
-106.97530740540797
10
-482.07017561056551
20
-98.975307405407989
10
-478.07017561056563
20
-98.975307405407989
10
-478.07017561056557
20
-90.975307405407975
10
-482.07017561056551
20
-90.975307405407975
10
-482.07017561056551
20
-86.975307405407989
10
-472.07017561056557
20
-86.975307405407989
10
-472.07017561056557
20
-90.975307405407989
10
-463.07017561056563
20
-90.975307405407975
10
-463.07017561056557
20
-86.975307405407989
10
-454.07017561056557
20
-86.975307405407989
10
-454.07017561056557
20
-90.975307405407989
10
-445.07017561056557
20
-90.975307405407975
10
-445.07017561056557
20
-86.975307405407989
10
-436.07017561056557
20
-86.975307405407989
10
-436.07017561056557
20
-90.975307405407975
10
-427.07017561056557
20
-90.975307405407975
10
-427.07017561056557
20
-86.975307405407989
10
-417.57017561056557
20
-86.975307405407989
10
-417.57017561056557
20
-90.975307405407989
10
-421.57017561056557
20
-90.975307405407975
10
-421.57017561056557
20
-98.97530740540796
10
-417.57017561056557
20
-98.975307405407989
10
-417.57017561056557
20
-106.97530740540799
10
-421.57017561056557
20
-106.97530740540797
10
-421.57017561056557
20
-114.97530740540797
10
-417.57017561056557
20
-114.97530740540797
10
-417.57017561056557
20
-122.97530740540799
0
LWPOLYLINE
5
189
100
AcDbEntity
8
0
100
AcDbPolyline
90
40
70
1
43
0.0
10
-395.40716068633679
20
-194.35752893957161
10
-391.40716068633679
20
-194.35752893957161
10
-391.40716068633679
20
-186.35752893957161
10
-395.40716068633679
20
-186.35752893957161
10
-395.40716068633679
20
-178.35752893957164
10
-391.40716068633679
20
-178.35752893957164
10
-391.40716068633679
20
-170.35752893957164
10
-395.40716068633679
20
-170.35752893957164
10
-395.40716068633679
20
-162.35752893957164
10
-391.40716068633679
20
-162.35752893957164
10
-391.40716068633679
20
-148.19134889365404
10
-398.12405225724837
20
-147.60369702706646
10
-397.7754292862578
20
-143.61891823469949
10
-407.73737626717519
20
-142.74736080722289
10
-408.08599923816587
20
-146.73213959958989
10
-418.04794621908331
20
-145.86058217211328
10
-417.6993232480927
20
-141.87580337974629
10
-427.66127022901014
20
-141.00424595226971
10
-428.00989320000076
20
-144.98902474463671
10
-438.75716068633722
20
-144.04876067570154
10
-438.75716068633722
20
-154.35752893957161
10
-434.75716068633716
20
-154.35752893957161
10
-434.75716068633716
20
-162.35752893957164
10
-438.75716068633722
20
-162.35752893957164
10
-438.75716068633722
20
-170.35752893957164
10
-434.75716068633716
20
-170.35752893957164
10
-434.75716068633716
20
-178.35752893957164
10
-438.75716068633722
20
-178.35752893957164
10
-438.75716068633722
20
-186.35752893957161
10
-434.75716068633716
20
-186.35752893957161
10
-434.75716068633716
20
-198.35752893957161
10
-426.75716068633722
20
-198.35752893957161
10
-426.75716068633722
20
-194.35752893957158
10
-418.75716068633722
20
-194.35752893957161
10
-418.75716068633722
20
-198.35752893957164
10
-410.75716068633716
20
-198.35752893957161
10
-410.75716068633716
20
-194.35752893957158
10
-402.75716068633722
20
-194.35752893957161
10
-402.75716068633722
20
-198.35752893957164
10
-395.40716068633719
20
-198.35752893957164
0
LWPOLYLINE
5
190
100
AcDbEntity
8
0
100
AcDbPolyline
90
8
70
1
43
0.0
10
-420.86938588579164
20
-163.81812721228957
10
-415.47111243072311
20
-163.8181272122896
42
-0.41421356237310197
10
-413.97111243072294
20
-165.31812721228957
10
-413.97111243072288
20
-170.99145329143258
42
-0.41421356237310897
10
-415.471112430723
20
-172.49145329143261
10
-420.86938588579164
20
-172.49145329143263
42
-0.41421356237309503
10
-422.3693858857917
20
-170.99145329143258
10
-422.36938588579164
20
-165.3181272122896
42
-0.41421356237309503
0
LWPOLYLINE
5
191
100
AcDbEntity
8
0
100
AcDbPolyline
90
40
70
1
43
0.0
10
-438.75716068633659
20
-170.35752893957164
10
-434.75716068633659
20
-170.35752893957169
10
-434.75716068633676
20
-178.35752893957167
10
-438.7571606863367
20
-178.35752893957161
10
-438.75716068633687
20
-186.35752893957161
10
-434.75716068633693
20
-186.35752893957169
10
-434.7571606863371
20
-194.35752893957169
10
-438.7571606863371
20
-194.35752893957161
10
-438.75716068633722
20
-202.35752893957164
10
-434.75716068633722
20
-202.35752893957169
10
-434.7571606863375
20
-216.52370898548929
10
-441.47405225724913
20
-217.11136085207673
10
-441.12542928625857
20
-221.09613964444372
10
-451.08737626717607
20
-221.9676970719201
10
-451.43599923816669
20
-217.98291827955313
10
-461.39794621908408
20
-218.85447570702951
10
-461.04932324809351
20
-222.83925449939653
10
-471.01127022901096
20
-223.71081192687288
10
-471.35989320000158
20
-219.72603313450588
10
-482.10716068633803
20
-220.66629720344085
10
-482.10716068633781
20
-210.35752893957078
10
-478.10716068633781
20
-210.35752893957084
10
-478.10716068633758
20
-202.35752893957084
10
-482.10716068633758
20
-202.35752893957078
10
-482.10716068633747
20
-194.35752893957076
10
-478.10716068633747
20
-194.35752893957084
10
-478.10716068633729
20
-186.35752893957084
10
-482.10716068633729
20
-186.35752893957076
10
-482.10716068633712
20
-178.35752893957076
10
-478.10716068633718
20
-178.35752893957081
10
-478.10716068633695
20
-166.35752893957087
10
-470.10716068633701
20
-166.35752893957101
10
-470.10716068633707
20
-170.35752893957101
10
-462.10716068633701
20
-170.35752893957118
10
-462.10716068633695
20
-166.35752893957115
10
-454.1071606863369
20
-166.35752893957132
10
-454.10716068633701
20
-170.3575289395713
10
-446.10716068633701
20
-170.35752893957147
10
-446.1071606863369
20
-166.35752893957147
10
-438.75716068633653
20
-166.35752893957161
0
LWPOLYLINE
5
192
100
AcDbEntity
8
0
100
AcDbPolyline
90
8
70
1
43
0.0
10
-445.86979592939173
20
-206.95703717170457
10
-463.95955365205862
20
-206.9570371717042
42
-0.41421356237308815
10
-465.45955365205856
20
-205.4570371717042
10
-465.45955365205828
20
-191.80552339374597
42
-0.41421356237310197
10
-463.95955365205822
20
-190.305523393746
10
-445.86979592939144
20
-190.30552339374637
42
-0.41421356237308815
10
-444.36979592939144
20
-191.8055233937464
10
-444.36979592939167
20
-205.4570371717046
42
-0.41421356237310197
0
LWPOLYLINE
5
193
100
AcDbEntity
8
0
100
AcDbPolyline
90
24
70
1
43
0.0
10
-446.11405776819208
20
-278.25122792331513
10
-445.76221133546107
20
-282.27285105197177
10
-455.72415831637852
20
-283.14440847944815
10
-456.07600474910953
20
-279.12278535079156
10
-466.03795173002703
20
-279.99434277826794
10
-465.68610529729602
20
-284.01596590692458
10
-499.27229948138682
20
-286.95437714901226
42
-0.41421356237309442
10
-500.89732514264591
20
-285.59081871599614
10
-506.25740332162587
20
-224.32484478335368
42
-0.41421356237309503
10
-504.89384488860969
20
-222.6998191220946
10
-471.35642497950869
20
-219.76567507614018
10
-471.0112702290113
20
-223.71081192687308
10
-461.04932324809386
20
-222.83925449939665
10
-461.39447799859124
20
-218.89411764866378
10
-451.4325310176738
20
-218.02256022118738
10
-451.08737626717635
20
-221.96769707192021
10
-441.12542928625885
20
-221.09613964444378
10
-441.47058403675629
20
-217.15100279371092
10
-432.17163192791219
20
-216.33744990151672
42
-0.41421356237309503
10
-430.5466062666531
20
-217.70100833453287
10
-425.18652808767314
20
-278.96698226717535
42
-0.41421356237308871
10
-426.55008652068932
20
-280.59200792843444
10
-435.80026435454357
20
-281.40129362449534
10
-436.15211078727464
20
-277.3796704958387
0
LWPOLYLINE
5
194
100
AcDbEntity
8
0
100
AcDbPolyline
90
12
70
1
43
0.0
10
-496.58876705383938
20
-277.56476156500207
10
-484.63443067673836
20
-276.51889265203039
42
-0.13689833259337233
10
-483.84188553284667
20
-276.66707716294991
10
-482.51311988071421
20
-277.32036258427269
42
0.13689833259338155
10
-481.72057473682241
20
-277.46854709519215
10
-448.84614969979458
20
-274.59240758452
42
0.13689833259337364
10
-448.09137706775749
20
-274.30885030933456
10
-446.89624017451013
20
-273.43475202744696
42
-0.13689833259344292
10
-446.14146754247304
20
-273.15119475226152
10
-434.18713116537197
20
-272.10532583928983
10
-437.6018931662245
20
-233.07441756805537
10
-500.00352905469197
20
-238.53385329376766
0
LWPOLYLINE
5
195
100
AcDbEntity
8
0
100
AcDbPolyline
90
36
70
1
43
0.0
10
-488.07017561056659
20
-166.32530740540761
10
-488.07017561056671
20
-170.32530740540764
10
-497.07017561056665
20
-170.32530740540744
10
-497.07017561056659
20
-166.32530740540744
10
-506.07017561056659
20
-166.32530740540727
10
-506.07017561056665
20
-170.32530740540727
10
-515.07017561056671
20
-170.32530740540707
10
-515.07017561056659
20
-166.3253074054071
10
-524.07017561056659
20
-166.3253074054069
10
-524.07017561056671
20
-170.32530740540693
10
-533.07017561056671
20
-170.32530740540676
10
-533.07017561056659
20
-166.32530740540673
10
-542.57017561056659
20
-166.32530740540656
10
-542.57017561056693
20
-178.32530740540653
10
-538.57017561056682
20
-178.32530740540662
10
-538.57017561056705
20
-186.32530740540662
10
-542.57017561056705
20
-186.32530740540656
10
-542.57017561056716
20
-194.32530740540656
10
-538.57017561056728
20
-194.32530740540665
10
-538.57017561056728
20
-202.32530740540665
10
-542.57017561056739
20
-202.32530740540653
10
-542.5701756105675
20
-210.32530740540659
10
-538.5701756105675
20
-210.32530740540665
10
-538.57017561056773
20
-219.92376210790968
10
-482.07017561056773
20
-219.92376210791079
10
-482.07017561056745
20
-210.32530740540773
10
-478.07017561056745
20
-210.32530740540778
10
-478.07017561056733
20
-202.32530740540781
10
-482.07017561056739
20
-202.32530740540773
10
-482.07017561056716
20
-194.32530740540773
10
-478.07017561056716
20
-194.32530740540784
10
-478.07017561056705
20
-186.32530740540784
10
-482.07017561056705
20
-186.32530740540773
10
-482.07017561056688
20
-178.32530740540773
10
-478.07017561056688
20
-178.32530740540784
10
-478.07017561056659
20
-166.32530740540784
0
LWPOLYLINE
5
196
100
AcDbEntity
8
0
100
AcDbPolyline
90
8
70
1
43
0.0
10
-522.98633091701458
20
-192.14626097157992
10
-523.48633091701458
20
-192.14626097157989
42
0.41421356237306733
10
-524.23633091701458
20
-192.89626097157989
10
-524.23633091701481
20
-201.39626097157986
42
0.41421356237303952
10
-523.4863309170147
20
-202.14626097157989
10
-522.98633091701481
20
-202.14626097157989
42
0.41421356237306733
10
-522.2363309170147
20
-201.39626097157998
10
-522.23633091701458
20
-192.89626097157992
42
0.41421356237301177
0
LWPOLYLINE
5
197
100
AcDbEntity
8
0
100
AcDbPolyline
90
8
70
1
43
0.0
10
-501.53633091701477
20
-206.29626097158035
10
-501.53633091701477
20
-205.79626097158035
42
0.41421356237301177
10
-502.28633091701482
20
-205.04626097158038
10
-510.78633091701482
20
-205.04626097158018
42
0.41421356237312279
10
-511.53633091701488
20
-205.79626097158012
10
-511.53633091701488
20
-206.29626097158012
42
0.41421356237310897
10
-510.78633091701477
20
-207.04626097158012
10
-502.28633091701482
20
-207.0462609715803
42
0.41421356237306733
0
LWPOLYLINE
5
198
100
AcDbEntity
8
0
100
AcDbPolyline
90
8
70
1
43
0.0
10
-485.03633091701482
20
-202.29626097158069
10
-485.03633091701465
20
-194.59626097158068
42
0.4142135623730257
10
-485.78633091701465
20
-193.8462609715807
10
-486.2863309170146
20
-193.84626097158065
42
0.41421356237306733
10
-487.03633091701465
20
-194.59626097158062
10
-487.03633091701477
20
-202.29626097158064
42
0.41421356237308116
10
-486.28633091701482
20
-203.04626097158064
10
-485.78633091701477
20
-203.04626097158064
42
0.41421356237306733
0
LWPOLYLINE
5
199
100
AcDbEntity
8
0
100
AcDbPolyline
90
44
70
1
43
0.0
10
-497.07017561056665
20
-170.32530740540744
10
-497.07017561056659
20
-166.32530740540744
10
-506.07017561056665
20
-166.32530740540727
10
-506.07017561056671
20
-170.32530740540724
10
-515.07017561056671
20
-170.32530740540707
10
-515.07017561056659
20
-166.3253074054071
10
-524.07017561056659
20
-166.3253074054069
10
-524.07017561056671
20
-170.3253074054069
10
-533.07017561056671
20
-170.3253074054067
10
-533.07017561056671
20
-166.32530740540673
10
-538.57017561056659
20
-166.32530740540662
10
-538.57017561056648
20
-158.32530740540662
10
-542.57017561056648
20
-158.32530740540653
10
-542.57017561056637
20
-150.32530740540653
10
-538.57017561056625
20
-150.32530740540662
10
-538.57017561056614
20
-142.32530740540662
10
-542.57017561056625
20
-142.32530740540653
10
-542.57017561056603
20
-134.32530740540653
10
-538.57017561056591
20
-134.32530740540665
10
-538.57017561056591
20
-126.9753074054066
10
-533.07017561056591
20
-126.97530740540671
10
-533.0701756105658
20
-122.97530740540672
10
-524.0701756105658
20
-122.97530740540691
10
-524.0701756105658
20
-126.97530740540691
10
-515.07017561056591
20
-126.97530740540708
10
-515.0701756105658
20
-122.97530740540708
10
-506.0701756105658
20
-122.97530740540725
10
-506.07017561056585
20
-126.97530740540726
10
-497.07017561056591
20
-126.97530740540743
10
-497.0701756105658
20
-122.97530740540743
10
-488.0701756105658
20
-122.97530740540762
10
-488.07017561056591
20
-126.97530740540762
10
-482.07017561056591
20
-126.97530740540772
10
-482.07017561056603
20
-134.32530740540776
10
-478.07017561056597
20
-134.32530740540781
10
-478.0701756105662
20
-142.32530740540778
10
-482.07017561056608
20
-142.32530740540773
10
-482.07017561056631
20
-150.32530740540773
10
-478.07017561056631
20
-150.32530740540781
10
-478.07017561056648
20
-158.32530740540781
10
-482.07017561056648
20
-158.32530740540773
10
-482.07017561056665
20
-166.32530740540773
10
-488.07017561056659
20
-166.32530740540761
10
-488.07017561056671
20
-170.32530740540761
0
LWPOLYLINE
5
200
100
AcDbEntity
8
0
100
AcDbPolyline
90
8
70
1
43
0.0
10
-493.22174150472188
20
-153.77211754279674
10
-514.34601566356707
20
-153.77211754279639
42
-0.41421356237310197
10
-515.84601566356707
20
-152.27211754279631
10
-515.84601566356696
20
-150.14149825297872
42
-0.41421356237309159
10
-514.34601566356696
20
-148.64149825297875
10
-493.22174150472176
20
-148.64149825297918
42
-0.41421356237308815
10
-491.72174150472182
20
-150.14149825297918
10
-491.72174150472188
20
-152.27211754279676
42
-0.41421356237309159
0
LWPOLYLINE
5
201
100
AcDbEntity
8
0
100
AcDbPolyline
90
36
70
1
43
0.0
10
-538.570175610565
20
-90.975307405406923
10
-538.57017561056477
20
-79.84446359407869
10
-482.07017561056477
20
-79.844463594079812
10
-482.07017561056495
20
-90.975307405408046
10
-478.070175610565
20
-90.975307405408131
10
-478.07017561056512
20
-98.975307405408131
10
-482.07017561056512
20
-98.975307405408046
10
-482.07017561056523
20
-106.97530740540806
10
-478.07017561056534
20
-106.97530740540813
10
-478.07017561056546
20
-114.97530740540813
10
-482.0701756105654
20
-114.97530740540805
10
-482.07017561056557
20
-122.97530740540806
10
-478.07017561056563
20
-122.97530740540815
10
-478.07017561056568
20
-126.97530740540813
10
-488.07017561056563
20
-126.97530740540792
10
-488.07017561056563
20
-122.97530740540792
10
-497.07017561056551
20
-122.97530740540778
10
-497.07017561056568
20
-126.97530740540773
10
-506.07017561056568
20
-126.97530740540756
10
-506.07017561056557
20
-122.97530740540756
10
-515.07017561056557
20
-122.97530740540742
10
-515.07017561056568
20
-126.97530740540739
10
-524.07017561056568
20
-126.97530740540721
10
-524.07017561056557
20
-122.97530740540722
10
-533.07017561056557
20
-122.97530740540707
10
-533.07017561056568
20
-126.97530740540705
10
-542.57017561056568
20
-126.97530740540685
10
-542.57017561056557
20
-122.97530740540685
10
-538.57017561056557
20
-122.97530740540694
10
-538.57017561056546
20
-114.97530740540695
10
-542.57017561056546
20
-114.97530740540685
10
-542.57017561056523
20
-106.97530740540685
10
-538.57017561056523
20
-106.97530740540694
10
-538.57017561056512
20
-98.975307405406937
10
-542.57017561056512
20
-98.975307405406866
10
-542.57017561056489
20
-90.975307405406852
0
LWPOLYLINE
5
202
100
AcDbEntity
8
0
100
AcDbPolyline
90
40
70
1
43
0.0
10
-564.73319053479599
20
-19.59308587124422
10
-568.73319053479599
20
-19.593085871244142
10
-568.73319053479611
20
-27.593085871244138
10
-564.73319053479611
20
-27.59308587124422
10
-564.73319053479622
20
-35.593085871244213
10
-568.73319053479622
20
-35.593085871244135
10
-568.73319053479645
20
-43.593085871244135
10
-564.73319053479645
20
-43.593085871244213
10
-564.73319053479668
20
-51.593085871244213
10
-568.73319053479668
20
-51.593085871244135
10
-568.7331905347969
20
-65.759265917161713
10
-562.01629896388533
20
-66.346917783749447
10
-562.36492193487595
20
-70.3316965761164
10
-552.40297495395851
20
-71.203254003593173
10
-552.05435198296777
20
-67.21847521122622
10
-542.09240500205044
20
-68.090032638702979
10
-542.44102797304117
20
-72.074811431069975
10
-532.47908099212361
20
-72.946368858546734
10
-532.13045802113288
20
-68.961590066179753
10
-521.38319053479654
20
-69.901854135115144
10
-521.38319053479631
20
-59.593085871245073
10
-525.38319053479643
20
-59.593085871244995
10
-525.38319053479631
20
-51.593085871244995
10
-521.3831905347962
20
-51.593085871245073
10
-521.38319053479597
20
-43.59308587124508
10
-525.38319053479609
20
-43.593085871244995
10
-525.38319053479586
20
-35.593085871244995
10
-521.38319053479586
20
-35.593085871245073
10
-521.38319053479574
20
-27.593085871245076
10
-525.38319053479574
20
-27.593085871244995
10
-525.38319053479552
20
-15.593085871245007
10
-533.3831905347954
20
-15.593085871244847
10
-533.38319053479552
20
-19.59308587124486
10
-541.38319053479552
20
-19.593085871244689
10
-541.38319053479552
20
-15.593085871244687
10
-549.3831905347954
20
-15.593085871244527
10
-549.38319053479552
20
-19.593085871244533
10
-557.38319053479563
20
-19.593085871244369
10
-557.38319053479552
20
-15.593085871244368
10
-564.73319053479554
20
-15.593085871244226
0
LWPOLYLINE
5
203
100
AcDbEntity
8
0
100
AcDbPolyline
90
8
70
1
43
0.0
10
-539.27096533534166
20
-50.132487598526758
10
-544.6692387904103
20
-50.132487598526637
42
-0.41421356237310025
10
-546.1692387904103
20
-48.632487598526623
10
-546.16923879041019
20
-42.959161519383613
42
-0.41421356237310375
10
-544.66923879041019
20
-41.459161519383649
10
-539.27096533534143
20
-41.459161519383763
42
-0.41421356237308637
10
-537.77096533534154
20
-42.959161519383777
10
-537.77096533534166
20
-48.632487598526779
42
-0.41421356237308982
0
LWPOLYLINE
5
204
100
AcDbEntity
8
0
100
AcDbPolyline
90
36
70
1
43
0.0
10
-624.57017561056557
20
-47.625307405408144
10
-624.57017561056557
20
-43.625307405408137
10
-615.57017561056557
20
-43.625307405408151
10
-615.57017561056557
20
-47.625307405408144
10
-606.57017561056557
20
-47.625307405408144
10
-606.57017561056557
20
-43.625307405408137
10
-597.57017561056557
20
-43.625307405408151
10
-597.57017561056557
20
-47.625307405408144
10
-588.57017561056557
20
-47.625307405408144
10
-588.57017561056557
20
-43.625307405408151
10
-579.57017561056557
20
-43.625307405408151
10
-579.57017561056557
20
-47.625307405408144
10
-570.07017561056557
20
-47.625307405408144
10
-570.07017561056546
20
-35.625307405408151
10
-574.07017561056557
20
-35.625307405408151
10
-574.07017561056557
20
-27.625307405408151
10
-570.07017561056557
20
-27.625307405408151
10
-570.07017561056557
20
-19.625307405408151
10
-574.07017561056557
20
-19.625307405408151
10
-574.07017561056568
20
-11.625307405408151
10
-570.07017561056557
20
-11.625307405408151
10
-570.07017561056557
20
-3.6253074054081513
10
-574.07017561056568
20
-3.6253074054081513
10
-574.07017561056557
20
5.97314729709489
10
-630.57017561056557
20
5.97314729709489
10
-630.57017561056557
20
-3.6253074054081513
10
-634.57017561056557
20
-3.6253074054081513
10
-634.57017561056557
20
-11.625307405408151
10
-630.57017561056557
20
-11.625307405408151
10
-630.57017561056557
20
-19.625307405408151
10
-634.57017561056557
20
-19.625307405408151
10
-634.57017561056557
20
-27.625307405408151
10
-630.57017561056557
20
-27.625307405408151
10
-630.57017561056557
20
-35.625307405408151
10
-634.57017561056557
20
-35.625307405408151
10
-634.57017561056557
20
-47.625307405408144
0
LWPOLYLINE
5
205
100
AcDbEntity
8
0
100
AcDbPolyline
90
8
70
1
43
0.0
10
-589.65402030411815
20
-21.804353839235162
10
-589.15402030411815
20
-21.804353839235162
42
0.41421356237303258
10
-588.40402030411815
20
-21.054353839235162
10
-588.40402030411815
20
-12.554353839235164
42
0.41421356237303353
10
-589.15402030411815
20
-11.804353839235151
10
-589.65402030411815
20
-11.804353839235162
42
0.41421356237300661
10
-590.40402030411815
20
-12.554353839235162
10
-590.40402030411815
20
-21.054353839235162
42
0.41421356237303258
0
LWPOLYLINE
5
206
100
AcDbEntity
8
0
100
AcDbPolyline
90
8
70
1
43
0.0
10
-611.10402030411808
20
-7.6543538392351635
10
-611.10402030411808
20
-8.1543538392351635
42
0.41421356237309026
10
-610.35402030411808
20
-8.9043538392351813
10
-601.85402030411819
20
-8.9043538392351618
42
0.41421356237309026
10
-601.10402030411808
20
-8.1543538392351618
10
-601.10402030411808
20
-7.6543538392351618
42
0.41421356237309026
10
-601.85402030411819
20
-6.9043538392351458
10
-610.35402030411819
20
-6.9043538392351635
42
0.4142135623730625
0
LWPOLYLINE
5
207
100
AcDbEntity
8
0
100
AcDbPolyline
90
8
70
1
43
0.0
10
-627.60402030411808
20
-11.65435383923516
10
-627.60402030411808
20
-19.354353839235163
42
0.41421356237309076
10
-626.85402030411819
20
-20.104353839235181
10
-626.35402030411819
20
-20.104353839235163
42
0.41421356237306295
10
-625.60402030411808
20
-19.354353839235163
10
-625.60402030411819
20
-11.65435383923516
42
0.41421356237303353
10
-626.35402030411808
20
-10.904353839235148
10
-626.85402030411819
20
-10.904353839235162
42
0.41421356237308898
0
LWPOLYLINE
5
208
100
AcDbEntity
8
0
100
AcDbPolyline
90
24
70
1
43
0.0
10
-666.52629345294258
20
64.300613112498411
10
-666.8781398856737
20
68.322236241155025
10
-656.91619290475626
20
69.193793668631642
10
-656.56434647202514
20
65.172170539975028
10
-646.60239949110769
20
66.043727967451659
10
-646.95424592383893
20
70.065351096108259
10
-613.36805173974801
20
73.003762338196651
42
-0.41421356237307777
10
-611.74302607848904
20
71.640203905180499
10
-606.38294789950783
20
10.374229972538176
42
-0.41421356237309853
10
-607.74650633252395
20
8.7492043112790689
10
-641.28392624162484
20
5.8150602653239991
10
-641.62908099212234
20
9.7601971160568528
10
-651.59102797303967
20
8.8886396885802377
10
-651.24587322254229
20
4.9435028378473778
10
-661.20782020345973
20
4.0719454103707662
10
-661.55297495395735
20
8.017082261103619
10
-671.51492193487468
20
7.1455248336270039
10
-671.16976718437729
20
3.2003879828941395
10
-680.4687192932214
20
2.3868350906998295
42
-0.41421356237307422
10
-682.09374495448037
20
3.7503935237158901
10
-687.4538231334617
20
65.016367456358225
42
-0.41421356237308604
10
-686.09026470044557
20
66.641393117617341
10
-676.84008686659126
20
67.450678813678408
10
-676.48824043386014
20
63.429055685021794
0
LWPOLYLINE
5
209
100
AcDbEntity
8
0
100
AcDbPolyline
90
12
70
1
43
0.0
10
-616.05158416729535
20
63.614146754186407
10
-628.0059205443963
20
62.568277841214481
42
-0.13689833259336237
10
-628.79846568828816
20
62.716462352134002
10
-630.12723134042051
20
63.369747773456673
42
0.13689833259337222
10
-630.91977648431225
20
63.517932284376158
10
-663.79420152134014
20
60.641792773703344
42
0.13689833259337511
10
-664.54897415337723
20
60.358235498517899
10
-665.74411104662454
20
59.484137216630295
42
-0.13689833259345197
10
-666.49888367866174
20
59.20057994144485
10
-678.45322005576259
20
58.15471102847291
10
-675.03845805490937
20
19.123802757238519
10
-612.63682216644202
20
24.583238482952019
0
LWPOLYLINE
5
210
100
AcDbEntity
8
0
100
AcDbPolyline
90
40
70
1
43
0.0
10
-673.88319053479563
20
-43.59308587124508
10
-677.88319053479563
20
-43.59308587124508
10
-677.88319053479563
20
-35.59308587124508
10
-673.88319053479563
20
-35.59308587124508
10
-673.88319053479563
20
-27.593085871245076
10
-677.88319053479563
20
-27.59308587124508
10
-677.88319053479563
20
-19.593085871245076
10
-673.88319053479563
20
-19.593085871245076
10
-673.88319053479563
20
-11.593085871245075
10
-677.88319053479563
20
-11.593085871245073
10
-677.88319053479563
20
2.5730941746725078
10
-671.16629896388406
20
3.1607460412601016
10
-671.51492193487456
20
7.1455248336270643
10
-661.55297495395712
20
8.0170822611036492
10
-661.2043519829665
20
4.0323034687366777
10
-651.24240500204905
20
4.9038608962132493
10
-651.59102797303956
20
8.8886396885802412
10
-641.62908099212223
20
9.7601971160568155
10
-641.28045802113161
20
5.7754183236898236
10
-630.53319053479515
20
6.7156823926250038
10
-630.53319053479527
20
-3.5930858712450759
10
-634.53319053479527
20
-3.5930858712450764
10
-634.53319053479527
20
-11.593085871245073
10
-630.53319053479527
20
-11.593085871245075
10
-630.53319053479527
20
-19.593085871245076
10
-634.53319053479527
20
-19.593085871245073
10
-634.53319053479527
20
-27.59308587124508
10
-630.53319053479527
20
-27.59308587124508
10
-630.53319053479527
20
-35.59308587124508
10
-634.53319053479527
20
-35.59308587124508
10
-634.53319053479515
20
-47.593085871245073
10
-642.53319053479515
20
-47.593085871245073
10
-642.53319053479527
20
-43.59308587124508
10
-650.53319053479527
20
-43.59308587124508
10
-650.53319053479515
20
-47.593085871245073
10
-658.53319053479504
20
-47.593085871245073
10
-658.53319053479527
20
-43.59308587124508
10
-666.53319053479527
20
-43.59308587124508
10
-666.53319053479504
20
-47.593085871245073
10
-673.88319053479563
20
-47.593085871245066
0
LWPOLYLINE
5
211
100
AcDbEntity
8
0
100
AcDbPolyline
90
8
70
1
43
0.0
10
-666.77055529174129
20
-6.9935776391119848
10
-648.68079756907434
20
-6.9935776391119306
42
-0.41421356237309503
10
-647.18079756907423
20
-8.4935776391119884
10
-647.18079756907423
20
-22.145091417070184
42
-0.41421356237309503
10
-648.68079756907434
20
-23.645091417070176
10
-666.77055529174129
20
-23.645091417070098
42
-0.41421356237309681
10
-668.27055529174118
20
-22.145091417070173
10
-668.27055529174129
20
-8.4935776391119848
42
-0.41421356237309503
0
LWPOLYLINE
5
212
100
AcDbEntity
8
0
100
AcDbPolyline
90
40
70
1
43
0.0
10
-717.23319053479599
20
-19.59308587124422
10
-721.23319053479599
20
-19.593085871244142
10
-721.23319053479622
20
-27.593085871244138
10
-717.23319053479611
20
-27.59308587124422
10
-717.23319053479645
20
-35.593085871244213
10
-721.23319053479634
20
-35.593085871244135
10
-721.23319053479645
20
-43.593085871244135
10
-717.23319053479645
20
-43.593085871244213
10
-717.23319053479668
20
-51.593085871244213
10
-721.23319053479668
20
-51.593085871244135
10
-721.2331905347969
20
-65.759265917161713
10
-714.51629896388522
20
-66.346917783749447
10
-714.86492193487607
20
-70.3316965761164
10
-704.90297495395862
20
-71.203254003593173
10
-704.554351982968
20
-67.21847521122622
10
-694.59240500205044
20
-68.090032638702979
10
-694.94102797304106
20
-72.074811431069975
10
-684.97908099212373
20
-72.946368858546734
10
-684.63045802113299
20
-68.961590066179753
10
-673.88319053479654
20
-69.901854135115144
10
-673.88319053479631
20
-59.593085871245073
10
-677.88319053479643
20
-59.593085871244995
10
-677.88319053479631
20
-51.593085871244995
10
-673.8831905347962
20
-51.593085871245073
10
-673.88319053479609
20
-43.59308587124508
10
-677.88319053479609
20
-43.593085871244995
10
-677.88319053479597
20
-35.593085871244995
10
-673.88319053479586
20
-35.593085871245073
10
-673.88319053479563
20
-27.593085871245076
10
-677.88319053479563
20
-27.593085871244995
10
-677.8831905347954
20
-15.593085871245007
10
-685.88319053479552
20
-15.593085871244847
10
-685.88319053479552
20
-19.59308587124486
10
-693.88319053479552
20
-19.593085871244689
10
-693.88319053479552
20
-15.593085871244687
10
-701.88319053479563
20
-15.593085871244527
10
-701.88319053479563
20
-19.593085871244533
10
-709.88319053479563
20
-19.593085871244369
10
-709.88319053479563
20
-15.593085871244368
10
-717.23319053479554
20
-15.593085871244226
0
LWPOLYLINE
5
213
100
AcDbEntity
8
0
100
AcDbPolyline
90
8
70
1
43
0.0
10
-691.77096533534166
20
-50.132487598526758
10
-697.1692387904103
20
-50.132487598526708
42
-0.41421356237310025
10
-698.66923879041042
20
-48.632487598526623
10
-698.66923879041019
20
-42.959161519383613
42
-0.41421356237308982
10
-697.16923879041019
20
-41.459161519383649
10
-691.77096533534154
20
-41.459161519383692
42
-0.41421356237310025
10
-690.27096533534154
20
-42.959161519383777
10
-690.27096533534166
20
-48.632487598526779
42
-0.41421356237308982
0
LWPOLYLINE
5
214
100
AcDbEntity
8
0
100
AcDbPolyline
90
36
70
1
43
0.0
10
-574.07017561056557
20
-122.97530740540799
10
-574.07017561056557
20
-134.10615121673624
10
-630.57017561056557
20
-134.10615121673621
10
-630.57017561056557
20
-122.97530740540796
10
-634.57017561056557
20
-122.97530740540796
10
-634.57017561056557
20
-114.97530740540797
10
-630.57017561056557
20
-114.97530740540797
10
-630.57017561056557
20
-106.97530740540797
10
-634.57017561056557
20
-106.97530740540797
10
-634.57017561056557
20
-98.975307405407989
10
-630.57017561056557
20
-98.975307405407989
10
-630.57017561056557
20
-90.975307405407975
10
-634.57017561056557
20
-90.975307405407975
10
-634.57017561056557
20
-86.975307405407989
10
-624.57017561056557
20
-86.975307405407989
10
-624.57017561056557
20
-90.975307405407989
10
-615.57017561056557
20
-90.975307405407975
10
-615.57017561056557
20
-86.975307405407989
10
-606.57017561056557
20
-86.975307405407989
10
-606.57017561056557
20
-90.975307405407989
10
-597.57017561056557
20
-90.975307405407975
10
-597.57017561056557
20
-86.975307405407989
10
-588.57017561056557
20
-86.975307405407989
10
-588.57017561056557
20
-90.975307405407975
10
-579.57017561056557
20
-90.975307405407975
10
-579.57017561056557
20
-86.975307405407989
10
-570.07017561056557
20
-86.975307405407989
10
-570.07017561056557
20
-90.975307405407989
10
-574.07017561056557
20
-90.975307405407975
10
-574.07017561056557
20
-98.97530740540796
10
-570.07017561056557
20
-98.975307405407989
10
-570.07017561056557
20
-106.97530740540799
10
-574.07017561056557
20
-106.97530740540797
10
-574.07017561056557
20
-114.97530740540797
10
-570.07017561056557
20
-114.97530740540797
10
-570.07017561056557
20
-122.97530740540799
0
LWPOLYLINE
5
215
100
AcDbEntity
8
0
100
AcDbPolyline
90
44
70
1
43
0.0
10
-615.57017561056557
20
-43.625307405408151
10
-615.57017561056557
20
-47.625307405408151
10
-606.57017561056557
20
-47.625307405408151
10
-606.57017561056557
20
-43.625307405408151
10
-597.57017561056557
20
-43.625307405408151
10
-597.57017561056557
20
-47.625307405408151
10
-588.57017561056557
20
-47.625307405408151
10
-588.57017561056557
20
-43.625307405408151
10
-579.57017561056557
20
-43.625307405408151
10
-579.57017561056557
20
-47.625307405408151
10
-574.07017561056557
20
-47.625307405408151
10
-574.07017561056568
20
-55.625307405408151
10
-570.07017561056557
20
-55.625307405408151
10
-570.07017561056557
20
-63.625307405408151
10
-574.07017561056568
20
-63.625307405408151
10
-574.07017561056568
20
-71.625307405408151
10
-570.07017561056557
20
-71.625307405408151
10
-570.07017561056557
20
-79.625307405408151
10
-574.07017561056568
20
-79.625307405408151
10
-574.07017561056557
20
-86.975307405408159
10
-579.57017561056557
20
-86.975307405408159
10
-579.57017561056557
20
-90.975307405408159
10
-588.57017561056557
20
-90.975307405408159
10
-588.57017561056557
20
-86.975307405408159
10
-597.57017561056557
20
-86.975307405408159
10
-597.57017561056557
20
-90.975307405408159
10
-606.57017561056557
20
-90.975307405408159
10
-606.57017561056557
20
-86.975307405408159
10
-615.57017561056557
20
-86.975307405408159
10
-615.57017561056557
20
-90.975307405408159
10
-624.57017561056557
20
-90.975307405408159
10
-624.57017561056557
20
-86.975307405408159
10
-630.57017561056557
20
-86.975307405408159
10
-630.57017561056557
20
-79.625307405408151
10
-634.57017561056557
20
-79.625307405408151
10
-634.57017561056557
20
-71.625307405408151
10
-630.57017561056557
20
-71.625307405408151
10
-630.57017561056557
20
-63.625307405408151
10
-634.57017561056557
20
-63.625307405408151
10
-634.57017561056557
20
-55.625307405408151
10
-630.57017561056557
20
-55.625307405408151
10
-630.57017561056557
20
-47.625307405408151
10
-624.57017561056557
20
-47.625307405408151
10
-624.57017561056557
20
-43.625307405408151
0
LWPOLYLINE
5
216
100
AcDbEntity
8
0
100
AcDbPolyline
90
8
70
1
43
0.0
10
-619.41860971641006
20
-60.178497268018923
10
-598.29433555756486
20
-60.178497268018944
42
-0.41421356237309503
10
-596.79433555756486
20
-61.67849726801893
10
-596.79433555756486
20
-63.809116557836518
42
-0.41421356237309503
10
-598.29433555756486
20
-65.309116557836518
10
-619.41860971641006
20
-65.309116557836504
42
-0.41421356237309503
10
-620.91860971641006
20
-63.809116557836518
10
-620.91860971641006
20
-61.67849726801893
42
-0.41421356237309503
0
LWPOLYLINE
5
217
100
AcDbEntity
8
0
100
AcDbPolyline
90
36
70
1
43
0.0
10
-691.070175610565
20
-90.975307405406923
10
-691.07017561056466
20
-79.84446359407869
10
-634.57017561056477
20
-79.844463594079812
10
-634.570175610565
20
-90.975307405408046
10
-630.570175610565
20
-90.975307405408131
10
-630.57017561056512
20
-98.975307405408131
10
-634.570175610565
20
-98.975307405408046
10
-634.57017561056523
20
-106.97530740540806
10
-630.57017561056523
20
-106.97530740540813
10
-630.57017561056546
20
-114.97530740540813
10
-634.57017561056546
20
-114.97530740540805
10
-634.57017561056557
20
-122.97530740540806
10
-630.57017561056568
20
-122.97530740540815
10
-630.57017561056568
20
-126.97530740540813
10
-640.57017561056568
20
-126.97530740540792
10
-640.57017561056557
20
-122.97530740540792
10
-649.57017561056557
20
-122.97530740540778
10
-649.57017561056557
20
-126.97530740540773
10
-658.57017561056568
20
-126.97530740540756
10
-658.57017561056546
20
-122.97530740540756
10
-667.57017561056557
20
-122.97530740540742
10
-667.57017561056568
20
-126.97530740540739
10
-676.5701756105658
20
-126.97530740540721
10
-676.57017561056546
20
-122.97530740540722
10
-685.57017561056568
20
-122.97530740540707
10
-685.57017561056568
20
-126.97530740540705
10
-695.07017561056568
20
-126.97530740540685
10
-695.07017561056557
20
-122.97530740540685
10
-691.07017561056546
20
-122.97530740540694
10
-691.07017561056546
20
-114.97530740540695
10
-695.07017561056546
20
-114.97530740540685
10
-695.07017561056523
20
-106.97530740540685
10
-691.07017561056523
20
-106.97530740540694
10
-691.07017561056512
20
-98.975307405406937
10
-695.07017561056512
20
-98.975307405406866
10
-695.070175610565
20
-90.975307405406852
0
LWPOLYLINE
5
218
100
AcDbEntity
8
0
100
AcDbPolyline
90
44
70
1
43
0.0
10
-649.57017561056671
20
-170.32530740540744
10
-649.57017561056659
20
-166.32530740540744
10
-658.57017561056659
20
-166.32530740540727
10
-658.57017561056682
20
-170.32530740540724
10
-667.57017561056671
20
-170.32530740540707
10
-667.57017561056659
20
-166.3253074054071
10
-676.57017561056659
20
-166.3253074054069
10
-676.57017561056682
20
-170.3253074054069
10
-685.57017561056682
20
-170.3253074054067
10
-685.57017561056671
20
-166.32530740540673
10
-691.07017561056659
20
-166.32530740540662
10
-691.07017561056648
20
-158.32530740540662
10
-695.07017561056659
20
-158.32530740540653
10
-695.07017561056625
20
-150.32530740540653
10
-691.07017561056625
20
-150.32530740540662
10
-691.07017561056614
20
-142.32530740540662
10
-695.07017561056614
20
-142.32530740540653
10
-695.07017561056603
20
-134.32530740540653
10
-691.07017561056591
20
-134.32530740540665
10
-691.07017561056591
20
-126.9753074054066
10
-685.5701756105658
20
-126.97530740540671
10
-685.57017561056568
20
-122.97530740540672
10
-676.5701756105658
20
-122.97530740540691
10
-676.57017561056591
20
-126.97530740540691
10
-667.57017561056591
20
-126.97530740540708
10
-667.57017561056568
20
-122.97530740540708
10
-658.57017561056568
20
-122.97530740540725
10
-658.5701756105658
20
-126.97530740540726
10
-649.57017561056591
20
-126.97530740540743
10
-649.57017561056568
20
-122.97530740540743
10
-640.57017561056568
20
-122.97530740540762
10
-640.5701756105658
20
-126.97530740540762
10
-634.57017561056591
20
-126.97530740540772
10
-634.57017561056603
20
-134.32530740540776
10
-630.57017561056603
20
-134.32530740540781
10
-630.57017561056614
20
-142.32530740540778
10
-634.57017561056614
20
-142.32530740540773
10
-634.57017561056637
20
-150.32530740540773
10
-630.57017561056637
20
-150.32530740540781
10
-630.57017561056648
20
-158.32530740540781
10
-634.57017561056648
20
-158.32530740540773
10
-634.57017561056671
20
-166.32530740540773
10
-640.57017561056671
20
-166.32530740540761
10
-640.57017561056682
20
-170.32530740540761
0
LWPOLYLINE
5
219
100
AcDbEntity
8
0
100
AcDbPolyline
90
8
70
1
43
0.0
10
-645.72174150472188
20
-153.77211754279674
10
-666.84601566356707
20
-153.77211754279625
42
-0.41421356237310197
10
-668.34601566356696
20
-152.27211754279631
10
-668.34601566356707
20
-150.14149825297872
42
-0.41421356237311935
10
-666.84601566356696
20
-148.64149825297875
10
-645.72174150472176
20
-148.64149825297909
42
-0.41421356237310197
10
-644.22174150472176
20
-150.14149825297918
10
-644.22174150472176
20
-152.27211754279676
42
-0.41421356237311935
0
LWPOLYLINE
5
220
100
AcDbEntity
8
0
100
AcDbPolyline
90
36
70
1
43
0.0
10
-640.57017561056671
20
-166.32530740540761
10
-640.57017561056671
20
-170.32530740540764
10
-649.57017561056671
20
-170.32530740540744
10
-649.57017561056659
20
-166.32530740540744
10
-658.57017561056659
20
-166.32530740540727
10
-658.57017561056659
20
-170.32530740540727
10
-667.57017561056671
20
-170.32530740540707
10
-667.57017561056671
20
-166.3253074054071
10
-676.57017561056659
20
-166.3253074054069
10
-676.57017561056659
20
-170.32530740540693
10
-685.57017561056671
20
-170.32530740540676
10
-685.57017561056659
20
-166.32530740540673
10
-695.07017561056659
20
-166.32530740540656
10
-695.07017561056682
20
-178.32530740540653
10
-691.07017561056693
20
-178.32530740540662
10
-691.07017561056693
20
-186.32530740540662
10
-695.07017561056705
20
-186.32530740540656
10
-695.07017561056728
20
-194.32530740540656
10
-691.07017561056728
20
-194.32530740540665
10
-691.07017561056739
20
-202.32530740540665
10
-695.07017561056739
20
-202.32530740540653
10
-695.0701756105675
20
-210.32530740540659
10
-691.0701756105675
20
-210.32530740540665
10
-691.07017561056762
20
-219.92376210790968
10
-634.57017561056773
20
-219.92376210791079
10
-634.5701756105675
20
-210.32530740540773
10
-630.5701756105675
20
-210.32530740540778
10
-630.57017561056728
20
-202.32530740540781
10
-634.57017561056739
20
-202.32530740540773
10
-634.57017561056716
20
-194.32530740540773
10
-630.57017561056716
20
-194.32530740540784
10
-630.57017561056705
20
-186.32530740540784
10
-634.57017561056705
20
-186.32530740540773
10
-634.57017561056682
20
-178.32530740540773
10
-630.57017561056693
20
-178.32530740540784
10
-630.57017561056671
20
-166.32530740540784
0
LWPOLYLINE
5
221
100
AcDbEntity
8
0
100
AcDbPolyline
90
8
70
1
43
0.0
10
-675.48633091701447
20
-192.14626097157992
10
-675.98633091701458
20
-192.14626097157989
42
0.41421356237331708
10
-676.73633091701447
20
-192.89626097157989
10
-676.73633091701481
20
-201.39626097157986
42
0.41421356237319218
10
-675.9863309170147
20
-202.14626097158001
10
-675.48633091701481
20
-202.14626097157989
42
0.41421356237331708
10
-674.73633091701481
20
-201.39626097157998
10
-674.73633091701458
20
-192.89626097157992
42
0.41421356237312279
0
LWPOLYLINE
5
222
100
AcDbEntity
8
0
100
AcDbPolyline
90
8
70
1
43
0.0
10
-654.03633091701477
20
-206.29626097158035
10
-654.03633091701477
20
-205.79626097158035
42
0.41421356237323381
10
-654.78633091701477
20
-205.04626097158038
10
-663.28633091701488
20
-205.04626097158018
42
0.41421356237323381
10
-664.03633091701477
20
-205.79626097158012
10
-664.03633091701477
20
-206.29626097158012
42
0.41421356237319218
10
-663.28633091701488
20
-207.04626097158027
10
-654.78633091701477
20
-207.0462609715803
42
0.41421356237331708
0
LWPOLYLINE
5
223
100
AcDbEntity
8
0
100
AcDbPolyline
90
8
70
1
43
0.0
10
-637.53633091701477
20
-202.29626097158069
10
-637.53633091701465
20
-194.59626097158068
42
0.4142135623730257
10
-638.28633091701465
20
-193.8462609715807
10
-638.78633091701454
20
-193.84626097158065
42
0.41421356237306733
10
-639.53633091701465
20
-194.59626097158062
10
-639.53633091701477
20
-202.29626097158064
42
0.41421356237308116
10
-638.78633091701477
20
-203.04626097158064
10
-638.28633091701477
20
-203.04626097158064
42
0.41421356237306733
0
LWPOLYLINE
5
224
100
AcDbEntity
8
0
100
AcDbPolyline
90
40
70
1
43
0.0
10
-591.25716068633653
20
-170.35752893957164
10
-587.25716068633653
20
-170.35752893957169
10
-587.25716068633665
20
-178.35752893957167
10
-591.25716068633665
20
-178.35752893957161
10
-591.25716068633676
20
-186.35752893957161
10
-587.25716068633687
20
-186.35752893957169
10
-587.25716068633699
20
-194.35752893957169
10
-591.25716068633699
20
-194.35752893957161
10
-591.2571606863371
20
-202.35752893957164
10
-587.2571606863371
20
-202.35752893957169
10
-587.25716068633744
20
-216.52370898548929
10
-593.97405225724901
20
-217.11136085207673
10
-593.62542928625851
20
-221.09613964444372
10
-603.58737626717596
20
-221.9676970719201
10
-603.93599923816646
20
-217.98291827955313
10
-613.89794621908402
20
-218.85447570702951
10
-613.5493232480934
20
-222.83925449939653
10
-623.51127022901096
20
-223.71081192687288
10
-623.85989320000147
20
-219.72603313450588
10
-634.60716068633792
20
-220.66629720344085
10
-634.60716068633769
20
-210.35752893957078
10
-630.60716068633769
20
-210.35752893957084
10
-630.60716068633758
20
-202.35752893957084
10
-634.60716068633758
20
-202.35752893957078
10
-634.60716068633735
20
-194.35752893957076
10
-630.60716068633735
20
-194.35752893957084
10
-630.60716068633724
20
-186.35752893957084
10
-634.60716068633724
20
-186.35752893957076
10
-634.60716068633712
20
-178.35752893957076
10
-630.60716068633712
20
-178.35752893957081
10
-630.60716068633678
20
-166.35752893957087
10
-622.60716068633678
20
-166.35752893957101
10
-622.60716068633701
20
-170.35752893957101
10
-614.6071606863369
20
-170.35752893957118
10
-614.6071606863369
20
-166.35752893957115
10
-606.60716068633678
20
-166.35752893957132
10
-606.60716068633701
20
-170.3575289395713
10
-598.6071606863369
20
-170.35752893957147
10
-598.6071606863369
20
-166.35752893957147
10
-591.25716068633642
20
-166.35752893957161
0
LWPOLYLINE
5
225
100
AcDbEntity
8
0
100
AcDbPolyline
90
8
70
1
43
0.0
10
-598.36979592939167
20
-206.95703717170457
10
-616.4595536520585
20
-206.9570371717042
42
-0.41421356237308815
10
-617.9595536520585
20
-205.4570371717042
10
-617.95955365205816
20
-191.80552339374597
42
-0.41421356237308815
10
-616.45955365205828
20
-190.305523393746
10
-598.36979592939133
20
-190.30552339374637
42
-0.41421356237308815
10
-596.86979592939133
20
-191.8055233937464
10
-596.86979592939156
20
-205.4570371717046
42
-0.41421356237310197
0
LWPOLYLINE
5
226
100
AcDbEntity
8
0
100
AcDbPolyline
90
40
70
1
43
0.0
10
-547.90716068633674
20
-194.35752893957161
10
-543.90716068633674
20
-194.35752893957161
10
-543.90716068633674
20
-186.35752893957161
10
-547.90716068633674
20
-186.35752893957161
10
-547.90716068633674
20
-178.35752893957164
10
-543.90716068633674
20
-178.35752893957164
10
-543.90716068633674
20
-170.35752893957164
10
-547.90716068633674
20
-170.35752893957164
10
-547.90716068633674
20
-162.35752893957164
10
-543.90716068633674
20
-162.35752893957164
10
-543.90716068633674
20
-148.19134889365404
10
-550.62405225724842
20
-147.60369702706646
10
-550.2754292862578
20
-143.61891823469949
10
-560.23737626717525
20
-142.74736080722289
10
-560.58599923816587
20
-146.73213959958989
10
-570.54794621908331
20
-145.86058217211328
10
-570.1993232480927
20
-141.87580337974629
10
-580.16127022901014
20
-141.00424595226971
10
-580.50989320000076
20
-144.98902474463671
10
-591.25716068633722
20
-144.04876067570154
10
-591.25716068633722
20
-154.35752893957161
10
-587.2571606863371
20
-154.35752893957161
10
-587.2571606863371
20
-162.35752893957164
10
-591.25716068633722
20
-162.35752893957164
10
-591.25716068633722
20
-170.35752893957164
10
-587.2571606863371
20
-170.35752893957164
10
-587.2571606863371
20
-178.35752893957164
10
-591.25716068633722
20
-178.35752893957164
10
-591.25716068633722
20
-186.35752893957161
10
-587.2571606863371
20
-186.35752893957161
10
-587.2571606863371
20
-198.35752893957161
10
-579.25716068633722
20
-198.35752893957161
10
-579.25716068633722
20
-194.35752893957158
10
-571.25716068633722
20
-194.35752893957161
10
-571.25716068633722
20
-198.35752893957164
10
-563.25716068633722
20
-198.35752893957161
10
-563.25716068633722
20
-194.35752893957158
10
-555.25716068633722
20
-194.35752893957161
10
-555.25716068633722
20
-198.35752893957164
10
-547.90716068633719
20
-198.35752893957164
0
LWPOLYLINE
5
227
100
AcDbEntity
8
0
100
AcDbPolyline
90
8
70
1
43
0.0
10
-573.36938588579164
20
-163.81812721228957
10
-567.97111243072311
20
-163.8181272122896
42
-0.41421356237310197
10
-566.471112430723
20
-165.31812721228957
10
-566.47111243072288
20
-170.99145329143258
42
-0.41421356237310897
10
-567.971112430723
20
-172.49145329143261
10
-573.36938588579164
20
-172.49145329143263
42
-0.41421356237309503
10
-574.86938588579176
20
-170.99145329143258
10
-574.86938588579164
20
-165.3181272122896
42
-0.41421356237309503
0
LWPOLYLINE
5
228
100
AcDbEntity
8
0
100
AcDbPolyline
90
24
70
1
43
0.0
10
-598.61405776819208
20
-278.25122792331513
10
-598.26221133546107
20
-282.27285105197177
10
-608.22415831637852
20
-283.14440847944815
10
-608.57600474910953
20
-279.12278535079156
10
-618.53795173002698
20
-279.99434277826794
10
-618.18610529729608
20
-284.01596590692458
10
-651.77229948138688
20
-286.95437714901237
42
-0.41421356237308182
10
-653.39732514264597
20
-285.59081871599614
10
-658.75740332162593
20
-224.32484478335368
42
-0.41421356237310764
10
-657.39384488860969
20
-222.6998191220946
10
-623.85642497950869
20
-219.76567507614018
10
-623.5112702290113
20
-223.71081192687308
10
-613.54932324809386
20
-222.83925449939665
10
-613.89447799859124
20
-218.89411764866378
10
-603.9325310176738
20
-218.02256022118738
10
-603.5873762671763
20
-221.96769707192021
10
-593.62542928625885
20
-221.09613964444378
10
-593.97058403675624
20
-217.15100279371092
10
-584.67163192791213
20
-216.33744990151672
42
-0.41421356237309503
10
-583.04660626665304
20
-217.70100833453287
10
-577.6865280876732
20
-278.96698226717535
42
-0.41421356237308871
10
-579.05008652068932
20
-280.59200792843444
10
-588.30026435454351
20
-281.40129362449534
10
-588.65211078727464
20
-277.3796704958387
0
LWPOLYLINE
5
229
100
AcDbEntity
8
0
100
AcDbPolyline
90
12
70
1
43
0.0
10
-649.08876705383943
20
-277.56476156500207
10
-637.13443067673836
20
-276.51889265203039
42
-0.13689833259337233
10
-636.34188553284662
20
-276.66707716294991
10
-635.01311988071416
20
-277.32036258427269
42
0.13689833259338155
10
-634.22057473682241
20
-277.46854709519215
10
-601.34614969979464
20
-274.59240758452
42
0.13689833259337364
10
-600.59137706775755
20
-274.30885030933456
10
-599.39624017451013
20
-273.43475202744696
42
-0.13689833259344292
10
-598.64146754247304
20
-273.15119475226152
10
-586.68713116537197
20
-272.10532583928983
10
-590.1018931662245
20
-233.07441756805537
10
-652.50352905469197
20
-238.53385329376766
0
ENDSEC
0
SECTION
2
OBJECTS
0
DICTIONARY
5
C
100
AcDbDictionary
3
ACAD_GROUP
350
D
3
ACAD_MLINESTYLE
350
17
0
DICTIONARY
5
D
100
AcDbDictionary
0
DICTIONARY
5
1A
330
C
100
AcDbDictionary
0
DICTIONARY
5
17
100
AcDbDictionary
0
ENDSEC
0
EOF
